<svg xmlns="http://www.w3.org/2000/svg" xmlns:xlink="http://www.w3.org/1999/xlink" contentStyleType="text/css" height="778px" preserveAspectRatio="none" style="width:1451px;height:778px;background:#FFFFFF;" version="1.1" viewBox="0 0 1451 778" width="1451px" zoomAndPan="magnify"><title>FitFood &#8212; Deployment View</title><defs/><g><text fill="#000000" font-family="sans-serif" font-size="14" font-weight="bold" lengthAdjust="spacing" textLength="202.8086" x="617.1083" y="23.5352">FitFood &#8212; Deployment View</text><!--cluster Host--><g id="cluster_Host"><polygon fill="#FDFDFD" points="16,231.9683,26,221.9683,536,221.9683,536,751.9383,526,761.9383,16,761.9383,16,231.9683" style="stroke:#181818;stroke-width:1.0;"/><line style="stroke:#181818;stroke-width:1.0;" x1="526" x2="536" y1="231.9683" y2="221.9683"/><line style="stroke:#181818;stroke-width:1.0;" x1="16" x2="526" y1="231.9683" y2="231.9683"/><line style="stroke:#181818;stroke-width:1.0;" x1="526" x2="526" y1="231.9683" y2="761.9383"/><text fill="#000000" font-family="sans-serif" font-size="14" font-weight="bold" lengthAdjust="spacing" textLength="130.7715" x="206.6143" y="248.5034">VPS / Docker host</text></g><!--cluster AppNode--><g id="cluster_AppNode"><polygon fill="#FDFDFD" points="48,287.9683,58,277.9683,248,277.9683,248,588.9183,238,598.9183,48,598.9183,48,287.9683" style="stroke:#181818;stroke-width:1.0;"/><line style="stroke:#181818;stroke-width:1.0;" x1="238" x2="248" y1="287.9683" y2="277.9683"/><line style="stroke:#181818;stroke-width:1.0;" x1="48" x2="238" y1="287.9683" y2="287.9683"/><line style="stroke:#181818;stroke-width:1.0;" x1="238" x2="238" y1="287.9683" y2="598.9183"/><text fill="#000000" font-family="sans-serif" font-size="14" font-weight="bold" lengthAdjust="spacing" textLength="99.2031" x="94.3984" y="304.5034">app container</text><text fill="#000000" font-family="sans-serif" font-size="14" font-weight="bold" lengthAdjust="spacing" textLength="84.4102" x="101.7949" y="320.9917">(Dockerfile)</text></g><!--cluster DbNode--><g id="cluster_DbNode"><polygon fill="#FDFDFD" points="272,477.9383,282,467.9383,496,467.9383,496,575.4283,486,585.4283,272,585.4283,272,477.9383" style="stroke:#181818;stroke-width:1.0;"/><line style="stroke:#181818;stroke-width:1.0;" x1="486" x2="496" y1="477.9383" y2="467.9383"/><line style="stroke:#181818;stroke-width:1.0;" x1="272" x2="486" y1="477.9383" y2="477.9383"/><line style="stroke:#181818;stroke-width:1.0;" x1="486" x2="486" y1="477.9383" y2="585.4283"/><text fill="#000000" font-family="sans-serif" font-size="14" font-weight="bold" lengthAdjust="spacing" textLength="90.9727" x="334.5137" y="494.4734">db container</text><text fill="#000000" font-family="sans-serif" font-size="14" font-weight="bold" lengthAdjust="spacing" textLength="148.7842" x="305.6079" y="510.9617">(postgres:16-alpine)</text></g><!--entity Vol--><g id="elem_Vol"><path d="M273.51,666.9583 L314.51,666.9583 A3.75,3.75 0 0 1 317.01,669.4583 L324.01,687.9583 L398.4924,687.9583 A2.5,2.5 0 0 1 400.9924,690.4583 L400.9924,735.4348 A2.5,2.5 0 0 1 398.4924,737.9348 L273.51,737.9348 A2.5,2.5 0 0 1 271.01,735.4348 L271.01,669.4583 A2.5,2.5 0 0 1 273.51,666.9583 " fill="#F1F1F1" style="stroke:#181818;stroke-width:0.5;"/><line style="stroke:#181818;stroke-width:0.5;" x1="271.01" x2="324.01" y1="687.9583" y2="687.9583"/><text fill="#000000" font-family="sans-serif" font-size="14" lengthAdjust="spacing" textLength="99.9824" x="281.01" y="708.4934">named volume</text><text fill="#000000" font-family="sans-serif" font-size="14" lengthAdjust="spacing" textLength="47.0518" x="281.01" y="724.9817">pgdata</text></g><!--entity Api--><g id="elem_Api"><rect fill="#F1F1F1" height="55.9766" rx="2.5" ry="2.5" style="stroke:#181818;stroke-width:0.5;" width="142.7451" x="89.63" y="333.9683"/><polygon fill="#F1F1F1" points="215.3751,338.9683,215.3751,352.9683,227.3751,352.9683,227.3751,344.9683,221.3751,338.9683,215.3751,338.9683" style="stroke:#181818;stroke-width:0.5;"/><line style="stroke:#181818;stroke-width:0.5;" x1="221.3751" x2="221.3751" y1="338.9683" y2="344.9683"/><line style="stroke:#181818;stroke-width:0.5;" x1="227.3751" x2="221.3751" y1="344.9683" y2="344.9683"/><text fill="#000000" font-family="sans-serif" font-size="14" lengthAdjust="spacing" textLength="112.7451" x="99.63" y="360.5034">FastAPI (uvicorn)</text><text fill="#000000" font-family="sans-serif" font-size="14" lengthAdjust="spacing" textLength="88.3613" x="99.63" y="376.9917">listens :8000</text></g><!--entity Static--><g id="elem_Static"><rect fill="#F1F1F1" height="72.4648" rx="2.5" ry="2.5" style="stroke:#181818;stroke-width:0.5;" width="167.9697" x="64.02" y="510.4483"/><polygon fill="#F1F1F1" points="214.9897,515.4483,214.9897,529.4483,226.9897,529.4483,226.9897,521.4483,220.9897,515.4483,214.9897,515.4483" style="stroke:#181818;stroke-width:0.5;"/><line style="stroke:#181818;stroke-width:0.5;" x1="220.9897" x2="220.9897" y1="515.4483" y2="521.4483"/><line style="stroke:#181818;stroke-width:0.5;" x1="226.9897" x2="220.9897" y1="521.4483" y2="521.4483"/><text fill="#000000" font-family="sans-serif" font-size="14" lengthAdjust="spacing" textLength="137.9697" x="74.02" y="536.9834">Next.js static export</text><text fill="#000000" font-family="sans-serif" font-size="14" lengthAdjust="spacing" textLength="97.6719" x="74.02" y="553.4717">(frontend/out)</text><text fill="#000000" font-family="sans-serif" font-size="14" lengthAdjust="spacing" textLength="137.0059" x="74.02" y="569.96">served by StaticFiles</text></g><!--entity PG--><g id="elem_PG"><path d="M287.58,533.9383 C287.58,523.9383 336.0048,523.9383 336.0048,523.9383 C336.0048,523.9383 384.4296,523.9383 384.4296,533.9383 L384.4296,559.4266 C384.4296,569.4266 336.0048,569.4266 336.0048,569.4266 C336.0048,569.4266 287.58,569.4266 287.58,559.4266 L287.58,533.9383 " fill="#F1F1F1" style="stroke:#181818;stroke-width:0.5;"/><path d="M287.58,533.9383 C287.58,543.9383 336.0048,543.9383 336.0048,543.9383 C336.0048,543.9383 384.4296,543.9383 384.4296,533.9383 " fill="none" style="stroke:#181818;stroke-width:0.5;"/><text fill="#000000" font-family="sans-serif" font-size="14" lengthAdjust="spacing" textLength="76.8496" x="297.58" y="561.4734">PostgreSQL</text></g><!--entity User--><g id="elem_User"><ellipse cx="161.0027" cy="51.4883" fill="#F1F1F1" rx="8" ry="8" style="stroke:#181818;stroke-width:0.5;"/><path d="M161.0027,59.4883 L161.0027,86.4883 M148.0027,67.4883 L174.0027,67.4883 M161.0027,86.4883 L148.0027,101.4883 M161.0027,86.4883 L174.0027,101.4883 " fill="none" style="stroke:#181818;stroke-width:0.5;"/><text fill="#000000" font-family="sans-serif" font-size="14" lengthAdjust="spacing" textLength="65.9463" x="113.24" y="116.5234">Customer</text><text fill="#000000" font-family="sans-serif" font-size="14" lengthAdjust="spacing" textLength="95.5254" x="113.24" y="133.0117">(web browser)</text></g><!--entity LLM--><g id="elem_LLM"><path d="M569.8568,525.4368 C572.8421,516.7322 580.9431,514.6693 586.3449,523.1133 C591.7965,515.5438 599.5084,515.6909 603.7844,524.3747 C608.7657,515.484 613.8762,515.4069 620.1162,523.1381 C626.2382,514.48 632.7749,515.432 637.8248,524.226 C640.8489,517.0437 647.9198,517.3243 651.9838,523.0887 C656.5839,513.9727 663.3345,514.8443 668.8165,522.1867 C674.4083,515.3474 682.1028,514.0554 686.6841,523.3087 C692.839,516.0564 698.8223,516.1255 704.1754,524.2225 C709.011,515.5421 715.423,515.6142 720.6325,523.8588 C725.7097,516.6177 731.4136,518.0066 735.4857,524.9139 C740.2524,515.7287 749.0291,515.9885 754.2814,524.395 C758.9821,515.8082 766.29,516.3292 770.867,524.5172 C776.6479,518.1454 782.2841,517.6242 787.3694,525.3325 C793.2019,515.7727 799.4218,517.7534 805.0685,525.5223 C821.2853,527.6479 822.9129,536.0134 816.4941,549.1055 C822.4755,561.3584 818.08,571.4435 803.4091,571.7765 C798.6208,580.4793 792.4203,580.4657 786.8212,572.5876 C782.4192,581.9274 775.8595,582.5936 768.9855,575.2266 C764.8615,583.4497 759.0618,585.6166 752.0385,578.4112 C746.6612,585.1328 741.8475,587.0576 736.2611,578.6289 C731.9553,587.3933 725.3348,586.8646 719.3538,580.5011 C714.4793,587.8355 708.2242,590.6562 702.1662,581.7539 C699.8709,588.8228 692.9505,591.0192 687.8292,584.8039 C681.8257,592.5292 675.1848,592.3701 670.9265,583.0712 C664.7048,589.6606 659.4894,589.443 654.3021,581.858 C647.5237,588.7614 640.6884,586.9047 636.6907,578.6312 C629.9006,585.3413 623.8565,585.4674 619.293,576.2057 C614.6252,585.0839 606.8716,585.0366 601.9518,576.4561 C595.7168,582.4512 587.9516,581.4914 585.2352,572.5249 C579.6004,579.4683 572.9582,578.5771 568.284,571.3738 C554.2992,567.328 553.6809,558.1558 562.1111,548.1517 C554.109,538.8999 556.8139,527.5124 569.8568,525.4368 " fill="#F1F1F1" style="stroke:#181818;stroke-width:0.5;"/><text fill="#000000" font-family="sans-serif" font-size="14" lengthAdjust="spacing" textLength="88.1904" x="575.02" y="543.7334">LLM provider</text><text fill="#000000" font-family="sans-serif" font-size="14" lengthAdjust="spacing" textLength="219.96" x="575.02" y="560.2217">(OpenRouter / OpenAI / Ollama)</text></g><!--entity FNS--><g id="elem_FNS"><path d="M854.1374,524.8789 C857.1404,518.7182 861.8467,518.0834 865.6904,524.0801 C868.4823,518.5032 872.8338,518.0878 876.4367,523.27 C879.9721,517.186 884.1388,518.8236 887.628,523.3188 C890.8724,518.1833 894.7493,518.2088 897.8864,523.4251 C900.8961,517.4486 906.9645,517.1467 910.8305,522.4417 C914.3704,517.446 918.2009,517.7199 921.7916,522.384 C925.1236,517.2283 928.9933,516.8333 932.5055,522.2006 C935.5099,517.3421 940.159,517.4843 943.1407,522.2257 C946.0843,516.7763 951.1914,516.0686 954.2256,522.1385 C957.8211,516.6886 962.5881,516.9555 966.0443,522.291 C969.9682,517.7876 974.5871,518.3142 976.8271,524.0623 C979.9385,519.4124 983.2767,519.2864 986.6505,523.7805 C990.4794,518.1299 994.7257,516.8855 999.0213,523.3021 C1003.2213,517.9997 1007.2782,517.6765 1010.8835,523.9135 C1016.7397,525.5644 1018.6026,530.6697 1013.6235,534.9988 C1022.2489,536.3897 1024.832,541.648 1019.1435,548.7746 C1022.9033,553.9549 1021.5115,559.5622 1014.3968,560.2406 C1018.3901,566.1389 1014.8059,569.665 1009.0871,570.5719 C1006.5696,575.969 1003.1262,575.8117 999.1475,572.1807 C997.1997,578.6022 991.4491,580.3427 987.224,574.3718 C984.7008,579.1216 980.8998,580.1 976.9786,575.9881 C973.6464,581.8398 969.727,580.7639 966.1788,576.2125 C963.4916,583.8829 958.7008,583.7344 953.5944,578.5877 C950.7034,584.4048 945.8651,583.2995 942.7272,578.8489 C940.1347,584.0873 936.3692,584.0968 932.88,579.7723 C927.893,584.1049 924.2233,583.749 920.9412,577.7939 C917.3541,582.4602 913.1425,581.3013 910.6978,576.5511 C906.429,581.7721 902.7241,581.5884 899.101,575.8668 C895.2289,580.9905 890.9923,581.1708 887.9027,575.0852 C884.579,580.5963 880.0887,579.5434 877.3559,574.495 C872.6449,580.363 867.5031,578.9064 865.4254,572.03 C862.1585,575.8074 857.2208,575.9179 855.2619,570.5728 C849.7415,568.5381 848.1183,564.4425 852.6592,559.9441 C845.6359,557.0201 845.4331,550.7639 851.667,546.8364 C847.3389,542.9796 847.063,537.8178 853.4309,535.6472 C848.599,532.1943 848.8705,527.6693 854.1374,524.8789 " fill="#F1F1F1" style="stroke:#181818;stroke-width:0.5;"/><text fill="#000000" font-family="sans-serif" font-size="14" lengthAdjust="spacing" textLength="102.2725" x="860.11" y="543.7334">FNS receipt API</text><text fill="#000000" font-family="sans-serif" font-size="14" lengthAdjust="spacing" textLength="141.7773" x="860.11" y="560.2217">(proverkacheka.com)</text></g><g id="elem_GMN18"><path d="M1051.97,503.4083 L1051.97,589.961 L1444.0252,589.961 L1444.0252,513.4083 L1434.0252,503.4083 L1051.97,503.4083 " fill="#FEFFDD" style="stroke:#181818;stroke-width:0.5;"/><path d="M1434.0252,503.4083 L1434.0252,513.4083 L1444.0252,513.4083 L1434.0252,503.4083 " fill="#FEFFDD" style="stroke:#181818;stroke-width:1.0;"/><text fill="#000000" font-family="sans-serif" font-size="13" lengthAdjust="spacing" textLength="175.3857" x="1057.97" y="520.9766">docker compose up --build</text><ellipse cx="1063.47" cy="531.5294" fill="#000000" rx="2.5" ry="2.5" style="stroke:#000000;stroke-width:0.0;"/><text fill="#000000" font-family="sans-serif" font-size="13" lengthAdjust="spacing" textLength="355.6528" x="1069.97" y="536.2872">default dev run uses embedded SQLite (no db container)</text><ellipse cx="1063.47" cy="546.8399" fill="#000000" rx="2.5" ry="2.5" style="stroke:#000000;stroke-width:0.0;"/><text fill="#000000" font-family="sans-serif" font-size="13" lengthAdjust="spacing" textLength="359.0552" x="1069.97" y="551.5977">compose profile swaps in PostgreSQL via DATABASE_URL</text><ellipse cx="1063.47" cy="562.1505" fill="#000000" rx="2.5" ry="2.5" style="stroke:#000000;stroke-width:0.0;"/><text fill="#000000" font-family="sans-serif" font-size="13" lengthAdjust="spacing" textLength="346.4741" x="1069.97" y="566.9083">secrets (SECRET_KEY, OPENAI_API_KEY, CHECK_TOKEN)</text><text fill="#000000" font-family="sans-serif" font-size="13" lengthAdjust="spacing" textLength="304.9414" x="1066.1966" y="582.2188">injected as env vars, never baked into the image</text></g><!--link User to Api--><g id="link_User_Api"><path d="M161,136.3583 C161,193.0283 161,281.5883 161,327.8283 " fill="none" id="User-to-Api" style="stroke:#181818;stroke-width:1.0;"/><polygon fill="#181818" points="161,333.8283,165,324.8283,161,328.8283,157,324.8283,161,333.8283" style="stroke:#181818;stroke-width:1.0;"/><text fill="#000000" font-family="sans-serif" font-size="13" lengthAdjust="spacing" textLength="81.2881" x="197.6516" y="179.5366">HTTPS :8000</text><text fill="#000000" font-family="sans-serif" font-size="13" lengthAdjust="spacing" textLength="152.5913" x="162" y="194.8472">(API + SPA, same origin)</text></g><!--link Api to Static--><g id="link_Api_Static"><path d="M159.05,390.3083 C156.79,422.1683 153.4666,468.9135 150.9666,503.9835 " fill="none" id="Api-to-Static" style="stroke:#181818;stroke-width:1.0;stroke-dasharray:7.0,7.0;"/><polygon fill="#181818" points="150.54,509.9683,155.1698,501.2755,150.8955,504.9809,147.1901,500.7066,150.54,509.9683" style="stroke:#181818;stroke-width:1.0;"/><text fill="#000000" font-family="sans-serif" font-size="13" lengthAdjust="spacing" textLength="50.0259" x="157.8" y="441.0066">serve UI</text></g><!--link Api to PG--><g id="link_Api_PG"><path d="M188.16,390.3883 C197.36,399.7283 207.66,410.2583 217,419.9383 C251.84,456.0683 287.7651,494.2023 311.3851,519.3823 " fill="none" id="Api-to-PG" style="stroke:#181818;stroke-width:1.0;"/><polygon fill="#181818" points="315.49,523.7583,312.25,514.4576,312.0692,520.1116,306.4153,519.9308,315.49,523.7583" style="stroke:#181818;stroke-width:1.0;"/><text fill="#000000" font-family="sans-serif" font-size="13" lengthAdjust="spacing" textLength="77.6572" x="261.4936" y="433.5066">SQLAlchemy</text><text fill="#000000" font-family="sans-serif" font-size="13" lengthAdjust="spacing" textLength="105.5044" x="247.57" y="448.8172">(DATABASE_URL)</text></g><!--link PG to Vol--><g id="link_PG_Vol"><path d="M336,569.7183 C336,595.0483 336,651.9383 336,681.6783 " fill="none" id="PG-to-Vol" style="stroke:#181818;stroke-width:1.0;"/><polygon fill="#181818" points="336,687.6783,340,678.6783,336,682.6783,332,678.6783,336,687.6783" style="stroke:#181818;stroke-width:1.0;"/><text fill="#000000" font-family="sans-serif" font-size="13" lengthAdjust="spacing" textLength="74.1343" x="337" y="633.5266">persist data</text></g><!--link Api to LLM--><g id="link_Api_LLM"><path d="M232.8,388.9783 C233.87,389.2983 234.94,389.6283 236,389.9383 C291.17,406.3783 307.05,402.7883 362,419.9383 C450.32,447.5083 543.5339,484.9812 608.3239,512.3812 " fill="none" id="Api-to-LLM" style="stroke:#181818;stroke-width:1.0;stroke-dasharray:7.0,7.0;"/><polygon fill="#181818" points="613.85,514.7183,607.1188,507.5286,609.2449,512.7708,604.0028,514.8968,613.85,514.7183" style="stroke:#181818;stroke-width:1.0;"/><text fill="#000000" font-family="sans-serif" font-size="13" lengthAdjust="spacing" textLength="105.6948" x="492.6186" y="433.5066">outbound HTTPS</text><text fill="#000000" font-family="sans-serif" font-size="13" lengthAdjust="spacing" textLength="184.812" x="453.06" y="448.8172">(key from env; mock if unset)</text></g><!--link Api to FNS--><g id="link_Api_FNS"><path d="M232.74,389.2183 C233.83,389.4683 234.92,389.7083 236,389.9383 C494.73,444.8783 589.23,344.0583 827,459.9383 C854.98,473.5783 877.6204,492.0449 897.0804,510.6249 " fill="none" id="Api-to-FNS" style="stroke:#181818;stroke-width:1.0;stroke-dasharray:7.0,7.0;"/><polygon fill="#181818" points="901.42,514.7683,897.6728,505.6601,897.8036,511.3155,892.1483,511.4463,901.42,514.7683" style="stroke:#181818;stroke-width:1.0;"/><text fill="#000000" font-family="sans-serif" font-size="13" lengthAdjust="spacing" textLength="105.6948" x="846.7604" y="433.5066">outbound HTTPS</text><text fill="#000000" font-family="sans-serif" font-size="13" lengthAdjust="spacing" textLength="198.9355" x="800.14" y="448.8172">(token from env; mock if unset)</text></g><!--link Host to GMN18--><g id="link_Host_GMN18"><path d="M536.4415,362.8883 C536.9904,362.8853 537.5648,362.8824 538.1642,362.8795 C539.3629,362.8737 540.6618,362.8681 542.0576,362.8629 C544.8491,362.8527 548.0282,362.8444 551.5694,362.8402 C565.7342,362.8233 585.6915,362.872 609.8042,363.1258 C658.0297,363.6333 722.8769,364.9608 791.2488,368.2233 C927.9925,374.7483 1078.835,389.0133 1139,419.9383 C1174.97,438.4283 1204.2,474.3083 1223.3,503.0183 " fill="none" id="Host-GMN18" style="stroke:#181818;stroke-width:1.0;stroke-dasharray:7.0,7.0;"/></g><!--SRC=[TLDTQzim57tthpXaBydMfjtB61aKt7oqeLsQDMbXK0YoVPsejYKZoKx3AEn7x1Vkb-pARjPiRFX5bkuvElUSAoTTJfX8Dz4wmS_lFp2YCjUxWfJ3lQHj4DXCgb8OKS1kHAAtKgsHYjpImOdI2U5R09oBE5iRNQbag7Djy6Ooyb_m70GYThpH6LRMwOBCW-fkAK9azDQIwNKWBEvu5GGDMUT-li09HZhEo62ZhMigBdd15_5DRPKeIyHQEI5LGzdMfpAdbZ4iozbU6o2CaodhG6SYh0ldKtIhMiRQgDw3ogLrf2m67qzFJr_0yY_OZ9vS_z72Ek5a37egjN5yRMfO0wdaH5UEgRYDcX94EooQmWdhiGrb-y-ipwyz9D4VBPJSujgG7Rp_S2poadVRLaRHGIU9S28Ibj7pjdpnvRgfcb_ioLET9snTHuc2jTGwhmfwKENQGvlIUvtxNE9SLmawrzUVKHfTowHHSLEIkkLkcE44_YUS-aMUYqAqUXYmnqvc2nYAIPOExAflWfd8P2BUK2RwiIvQ31S6WKyPnyTdtbyCSBbSSjIDwmpqeRp3OXuUmR9mQ2FNKlK2NzlldxqOoB36OznDcnFFDh_WNROXpFdIOkU78Lo6v-5YlBgxlUu5VExBk6kkAybOphlnyJUtjs00RZho0zmAOvgCTk202v2gFw7W2ODCKN7AxbMNj-0VMASpKlz7ywmxGgGTFmdej1blZYvffvvjus4WL2KhZogP9tps5WcbeifPEzKmbK9boOAAY9A4WsO797DsbSRXOFKQw9wHu_5l17OhIWkfy3f5gAN0eNCDq59io5bq5-FXxNYvkXf_FSBDV3mBfokEhFqVNew7LwlbpTLurckcLAf7YXsBukYvVTJ2s2Ceuj50938-aCffk0r15c9D0JyXU4k2Nm00]--></g></svg>