<svg xmlns="http://www.w3.org/2000/svg" xmlns:xlink="http://www.w3.org/1999/xlink" contentStyleType="text/css" height="1511px" preserveAspectRatio="none" style="width:2301px;height:1511px;background:#FFFFFF;" version="1.1" viewBox="0 0 2301 1511" width="2301px" zoomAndPan="magnify"><title>FitFood &#8212; Static View (Component Diagram)</title><defs/><g><text fill="#000000" font-family="sans-serif" font-size="14" font-weight="bold" lengthAdjust="spacing" textLength="319.375" x="983.9425" y="23.5352">FitFood &#8212; Static View (Component Diagram)</text><!--cluster External systems--><g id="cluster_External systems"><path d="M1602.22,1293.4883 L1726.096,1293.4883 A3.75,3.75 0 0 1 1728.596,1295.9883 L1735.596,1315.9766 L1879.18,1315.9766 A2.5,2.5 0 0 1 1881.68,1318.4766 L1881.68,1501.9883 A2.5,2.5 0 0 1 1879.18,1504.4883 L1602.22,1504.4883 A2.5,2.5 0 0 1 1599.72,1501.9883 L1599.72,1295.9883 A2.5,2.5 0 0 1 1602.22,1293.4883 " fill="none" style="stroke:#000000;stroke-width:1.5;"/><line style="stroke:#000000;stroke-width:1.5;" x1="1599.72" x2="1735.596" y1="1315.9766" y2="1315.9766"/><text fill="#000000" font-family="sans-serif" font-size="14" font-weight="bold" lengthAdjust="spacing" textLength="122.876" x="1603.72" y="1309.0234">External systems</text></g><!--cluster App--><g id="cluster_App"><path d="M247.2,43.4883 L479.0018,43.4883 A3.75,3.75 0 0 1 481.5018,45.9883 L488.5018,65.9766 L2291.76,65.9766 A2.5,2.5 0 0 1 2294.26,68.4766 L2294.26,1266.9883 A2.5,2.5 0 0 1 2291.76,1269.4883 L247.2,1269.4883 A2.5,2.5 0 0 1 244.7,1266.9883 L244.7,45.9883 A2.5,2.5 0 0 1 247.2,43.4883 " fill="none" style="stroke:#000000;stroke-width:1.5;"/><line style="stroke:#000000;stroke-width:1.5;" x1="244.7" x2="488.5018" y1="65.9766" y2="65.9766"/><text fill="#000000" font-family="sans-serif" font-size="14" font-weight="bold" lengthAdjust="spacing" textLength="230.8018" x="248.7" y="59.0234">FitFood (single FastAPI process)</text></g><!--cluster API--><g id="cluster_API"><path d="M642.27,972.4883 L774.5815,972.4883 A3.75,3.75 0 0 1 777.0815,974.9883 L784.0815,994.9766 L1343.87,994.9766 A2.5,2.5 0 0 1 1346.37,997.4766 L1346.37,1234.9883 A2.5,2.5 0 0 1 1343.87,1237.4883 L642.27,1237.4883 A2.5,2.5 0 0 1 639.77,1234.9883 L639.77,974.9883 A2.5,2.5 0 0 1 642.27,972.4883 " fill="none" style="stroke:#000000;stroke-width:1.5;"/><line style="stroke:#000000;stroke-width:1.5;" x1="639.77" x2="784.0815" y1="994.9766" y2="994.9766"/><text fill="#000000" font-family="sans-serif" font-size="14" font-weight="bold" lengthAdjust="spacing" textLength="131.3115" x="643.77" y="988.0234">API layer (routers)</text></g><!--cluster Core--><g id="cluster_Core"><path d="M967.62,705.4883 L1002.1024,705.4883 A3.75,3.75 0 0 1 1004.6024,707.9883 L1011.6024,727.9766 L1121.33,727.9766 A2.5,2.5 0 0 1 1123.83,730.4766 L1123.83,929.9883 A2.5,2.5 0 0 1 1121.33,932.4883 L967.62,932.4883 A2.5,2.5 0 0 1 965.12,929.9883 L965.12,707.9883 A2.5,2.5 0 0 1 967.62,705.4883 " fill="none" style="stroke:#000000;stroke-width:1.5;"/><line style="stroke:#000000;stroke-width:1.5;" x1="965.12" x2="1011.6024" y1="727.9766" y2="727.9766"/><text fill="#000000" font-family="sans-serif" font-size="14" font-weight="bold" lengthAdjust="spacing" textLength="33.4824" x="969.12" y="721.0234">Core</text></g><!--cluster Services--><g id="cluster_Services"><path d="M955.46,114.4883 L1075.583,114.4883 A3.75,3.75 0 0 1 1078.083,116.9883 L1085.083,136.9766 L1345.22,136.9766 A2.5,2.5 0 0 1 1347.72,139.4766 L1347.72,662.9883 A2.5,2.5 0 0 1 1345.22,665.4883 L955.46,665.4883 A2.5,2.5 0 0 1 952.96,662.9883 L952.96,116.9883 A2.5,2.5 0 0 1 955.46,114.4883 " fill="none" style="stroke:#000000;stroke-width:1.5;"/><line style="stroke:#000000;stroke-width:1.5;" x1="952.96" x2="1085.083" y1="136.9766" y2="136.9766"/><text fill="#000000" font-family="sans-serif" font-size="14" font-weight="bold" lengthAdjust="spacing" textLength="119.123" x="956.96" y="130.0234">Domain services</text></g><!--cluster Data--><g id="cluster_Data"><path d="M1648.44,86.4883 L1722.8033,86.4883 A3.75,3.75 0 0 1 1725.3033,88.9883 L1732.3033,108.9766 L2267.76,108.9766 A2.5,2.5 0 0 1 2270.26,111.4766 L2270.26,365.9883 A2.5,2.5 0 0 1 2267.76,368.4883 L1648.44,368.4883 A2.5,2.5 0 0 1 1645.94,365.9883 L1645.94,88.9883 A2.5,2.5 0 0 1 1648.44,86.4883 " fill="none" style="stroke:#000000;stroke-width:1.5;"/><line style="stroke:#000000;stroke-width:1.5;" x1="1645.94" x2="1732.3033" y1="108.9766" y2="108.9766"/><text fill="#000000" font-family="sans-serif" font-size="14" font-weight="bold" lengthAdjust="spacing" textLength="73.3633" x="1649.94" y="102.0234">Data layer</text></g><!--entity LLM--><g id="elem_LLM"><path d="M1625.5568,1436.2368 C1628.5421,1427.5322 1636.6431,1425.4693 1642.0449,1433.9133 C1647.4965,1426.3438 1655.2084,1426.4909 1659.4844,1435.1747 C1664.4657,1426.284 1669.5762,1426.2069 1675.8162,1433.9381 C1681.9382,1425.28 1688.4749,1426.232 1693.5248,1435.026 C1696.5489,1427.8437 1703.6198,1428.1243 1707.6838,1433.8887 C1712.2839,1424.7727 1719.0345,1425.6443 1724.5165,1432.9867 C1730.1083,1426.1474 1737.8028,1424.8554 1742.3841,1434.1087 C1748.539,1426.8564 1754.5223,1426.9255 1759.8754,1435.0225 C1764.711,1426.3421 1771.123,1426.4142 1776.3325,1434.6588 C1781.4097,1427.4177 1787.1136,1428.8066 1791.1857,1435.7139 C1795.9524,1426.5287 1804.7291,1426.7885 1809.9814,1435.195 C1814.6821,1426.6082 1821.99,1427.1292 1826.567,1435.3172 C1832.3479,1428.9454 1837.9841,1428.4242 1843.0694,1436.1325 C1848.9019,1426.5727 1855.1218,1428.5534 1860.7685,1436.3223 C1876.9853,1438.4479 1878.6129,1446.8134 1872.1941,1459.9055 C1878.1755,1472.1584 1873.78,1482.2435 1859.1091,1482.5765 C1854.3208,1491.2793 1848.1203,1491.2657 1842.5212,1483.3876 C1838.1192,1492.7274 1831.5595,1493.3936 1824.6855,1486.0266 C1820.5615,1494.2497 1814.7618,1496.4166 1807.7385,1489.2112 C1802.3612,1495.9328 1797.5475,1497.8576 1791.9611,1489.4289 C1787.6553,1498.1933 1781.0348,1497.6646 1775.0538,1491.3011 C1770.1793,1498.6355 1763.9242,1501.4562 1757.8662,1492.5539 C1755.5709,1499.6228 1748.6505,1501.8192 1743.5292,1495.6039 C1737.5257,1503.3292 1730.8848,1503.1701 1726.6265,1493.8712 C1720.4048,1500.4606 1715.1894,1500.243 1710.0021,1492.658 C1703.2237,1499.5614 1696.3884,1497.7047 1692.3907,1489.4312 C1685.6006,1496.1413 1679.5565,1496.2674 1674.993,1487.0057 C1670.3252,1495.8839 1662.5716,1495.8366 1657.6518,1487.2561 C1651.4168,1493.2512 1643.6516,1492.2914 1640.9352,1483.3249 C1635.3004,1490.2683 1628.6582,1489.3771 1623.984,1482.1738 C1609.9992,1478.128 1609.3809,1468.9558 1617.8111,1458.9517 C1609.809,1449.6999 1612.5139,1438.3124 1625.5568,1436.2368 " fill="#F1F1F1" style="stroke:#181818;stroke-width:0.5;"/><text fill="#000000" font-family="sans-serif" font-size="14" lengthAdjust="spacing" textLength="88.1904" x="1696.6048" y="1454.5334">LLM provider</text><text fill="#000000" font-family="sans-serif" font-size="14" lengthAdjust="spacing" textLength="219.96" x="1630.72" y="1471.0217">(OpenRouter / OpenAI / Ollama)</text></g><!--entity FNS--><g id="elem_FNS"><path d="M1663.8374,1337.6789 C1666.8404,1331.5182 1671.5467,1330.8834 1675.3904,1336.8801 C1678.1823,1331.3032 1682.5338,1330.8878 1686.1367,1336.07 C1689.6721,1329.986 1693.8388,1331.6236 1697.328,1336.1188 C1700.5724,1330.9833 1704.4493,1331.0088 1707.5864,1336.2251 C1710.5961,1330.2486 1716.6645,1329.9467 1720.5305,1335.2417 C1724.0704,1330.246 1727.9009,1330.5199 1731.4916,1335.184 C1734.8236,1330.0283 1738.6933,1329.6333 1742.2055,1335.0006 C1745.2099,1330.1421 1749.859,1330.2843 1752.8407,1335.0257 C1755.7843,1329.5763 1760.8914,1328.8686 1763.9256,1334.9385 C1767.5211,1329.4886 1772.2881,1329.7555 1775.7443,1335.091 C1779.6682,1330.5876 1784.2871,1331.1142 1786.5271,1336.8623 C1789.6385,1332.2124 1792.9767,1332.0864 1796.3505,1336.5805 C1800.1794,1330.9299 1804.4257,1329.6855 1808.7213,1336.1021 C1812.9213,1330.7997 1816.9782,1330.4765 1820.5835,1336.7135 C1826.4397,1338.3644 1828.3026,1343.4697 1823.3235,1347.7988 C1831.9489,1349.1897 1834.532,1354.448 1828.8435,1361.5746 C1832.6033,1366.7549 1831.2115,1372.3622 1824.0968,1373.0406 C1828.0901,1378.9389 1824.5059,1382.465 1818.7871,1383.3719 C1816.2696,1388.769 1812.8262,1388.6117 1808.8475,1384.9807 C1806.8997,1391.4022 1801.1491,1393.1427 1796.924,1387.1718 C1794.4008,1391.9216 1790.5998,1392.9 1786.6786,1388.7881 C1783.3464,1394.6398 1779.427,1393.5639 1775.8788,1389.0125 C1773.1916,1396.6829 1768.4008,1396.5344 1763.2944,1391.3877 C1760.4034,1397.2048 1755.5651,1396.0995 1752.4272,1391.6489 C1749.8347,1396.8873 1746.0692,1396.8968 1742.58,1392.5723 C1737.593,1396.9049 1733.9233,1396.549 1730.6412,1390.5939 C1727.0541,1395.2602 1722.8425,1394.1013 1720.3978,1389.3511 C1716.129,1394.5721 1712.4241,1394.3884 1708.801,1388.6668 C1704.9289,1393.7905 1700.6923,1393.9708 1697.6027,1387.8852 C1694.279,1393.3963 1689.7887,1392.3434 1687.0559,1387.295 C1682.3449,1393.163 1677.2031,1391.7064 1675.1254,1384.83 C1671.8585,1388.6074 1666.9208,1388.7179 1664.9619,1383.3728 C1659.4415,1381.3381 1657.8183,1377.2425 1662.3592,1372.7441 C1655.3359,1369.8201 1655.1331,1363.5639 1661.367,1359.6364 C1657.0389,1355.7796 1656.763,1350.6178 1663.1309,1348.4472 C1658.299,1344.9943 1658.5705,1340.4693 1663.8374,1337.6789 " fill="#F1F1F1" style="stroke:#181818;stroke-width:0.5;"/><text fill="#000000" font-family="sans-serif" font-size="14" lengthAdjust="spacing" textLength="102.2725" x="1689.5624" y="1356.5334">FNS receipt API</text><text fill="#000000" font-family="sans-serif" font-size="14" lengthAdjust="spacing" textLength="141.7773" x="1669.81" y="1373.0217">(proverkacheka.com)</text></g><!--entity Frontend--><g id="elem_Frontend"><rect fill="#F1F1F1" height="69.4648" rx="2.5" ry="2.5" style="stroke:#181818;stroke-width:0.5;" width="167.0752" x="260.7" y="964.7583"/><text fill="#000000" font-family="sans-serif" font-size="14" lengthAdjust="spacing" textLength="61.0586" x="313.7083" y="988.2934">Frontend</text><text fill="#000000" font-family="sans-serif" font-size="14" lengthAdjust="spacing" textLength="147.0752" x="270.7" y="1004.7817">(Next.js static export)</text><text fill="#000000" font-family="sans-serif" font-size="14" lengthAdjust="spacing" textLength="139.9043" x="274.2854" y="1021.27">served via StaticFiles</text></g><!--entity R_auth--><g id="elem_R_auth"><rect fill="#F1F1F1" height="36.4883" rx="2.5" ry="2.5" style="stroke:#181818;stroke-width:0.5;" width="50.3447" x="678.69" y="1177.2483"/><text fill="#000000" font-family="sans-serif" font-size="14" lengthAdjust="spacing" textLength="30.3447" x="688.69" y="1200.7834">auth</text></g><!--entity R_profile--><g id="elem_R_profile"><rect fill="#F1F1F1" height="36.4883" rx="2.5" ry="2.5" style="stroke:#181818;stroke-width:0.5;" width="64.1807" x="671.77" y="1106.2483"/><text fill="#000000" font-family="sans-serif" font-size="14" lengthAdjust="spacing" textLength="44.1807" x="681.77" y="1129.7834">profile</text></g><!--entity R_products--><g id="elem_R_products"><rect fill="#F1F1F1" height="36.4883" rx="2.5" ry="2.5" style="stroke:#181818;stroke-width:0.5;" width="80.1836" x="663.77" y="1035.2483"/><text fill="#000000" font-family="sans-serif" font-size="14" lengthAdjust="spacing" textLength="60.1836" x="673.77" y="1058.7834">products</text></g><!--entity R_meals--><g id="elem_R_meals"><rect fill="#F1F1F1" height="36.4883" rx="2.5" ry="2.5" style="stroke:#181818;stroke-width:0.5;" width="123.1543" x="982.9" y="1177.2483"/><text fill="#000000" font-family="sans-serif" font-size="14" lengthAdjust="spacing" textLength="103.1543" x="992.9" y="1200.7834">meals / rations</text></g><!--entity R_fridge--><g id="elem_R_fridge"><rect fill="#F1F1F1" height="36.4883" rx="2.5" ry="2.5" style="stroke:#181818;stroke-width:0.5;" width="60.2637" x="1014.35" y="1106.2483"/><text fill="#000000" font-family="sans-serif" font-size="14" lengthAdjust="spacing" textLength="40.2637" x="1024.35" y="1129.7834">fridge</text></g><!--entity R_receipts--><g id="elem_R_receipts"><rect fill="#F1F1F1" height="36.4883" rx="2.5" ry="2.5" style="stroke:#181818;stroke-width:0.5;" width="73.7305" x="1007.61" y="1035.2483"/><text fill="#000000" font-family="sans-serif" font-size="14" lengthAdjust="spacing" textLength="53.7305" x="1017.61" y="1058.7834">receipts</text></g><!--entity R_recipes--><g id="elem_R_recipes"><rect fill="#F1F1F1" height="36.4883" rx="2.5" ry="2.5" style="stroke:#181818;stroke-width:0.5;" width="68.4941" x="1217.03" y="1177.2483"/><text fill="#000000" font-family="sans-serif" font-size="14" lengthAdjust="spacing" textLength="48.4941" x="1227.03" y="1200.7834">recipes</text></g><!--entity R_reco--><g id="elem_R_reco"><rect fill="#F1F1F1" height="36.4883" rx="2.5" ry="2.5" style="stroke:#181818;stroke-width:0.5;" width="142.1787" x="1180.19" y="1106.2483"/><text fill="#000000" font-family="sans-serif" font-size="14" lengthAdjust="spacing" textLength="122.1787" x="1190.19" y="1129.7834">recommendations</text></g><!--entity C_sec--><g id="elem_C_sec"><rect fill="#F1F1F1" height="52.9766" rx="2.5" ry="2.5" style="stroke:#181818;stroke-width:0.5;" width="73.1221" x="1007.92" y="855.9983"/><text fill="#000000" font-family="sans-serif" font-size="14" lengthAdjust="spacing" textLength="53.1221" x="1017.92" y="879.5334">security</text><text fill="#000000" font-family="sans-serif" font-size="14" lengthAdjust="spacing" textLength="34.2891" x="1027.3365" y="896.0217">(JWT)</text></g><!--entity C_deps--><g id="elem_C_deps"><rect fill="#F1F1F1" height="52.9766" rx="2.5" ry="2.5" style="stroke:#181818;stroke-width:0.5;" width="110.7061" x="989.12" y="767.9983"/><text fill="#000000" font-family="sans-serif" font-size="14" lengthAdjust="spacing" textLength="32.5596" x="1028.1932" y="791.5334">deps</text><text fill="#000000" font-family="sans-serif" font-size="14" lengthAdjust="spacing" textLength="90.7061" x="999.12" y="808.0217">(auth guards)</text></g><!--entity S_nutrition--><g id="elem_S_nutrition"><rect fill="#F1F1F1" height="69.4648" rx="2.5" ry="2.5" style="stroke:#181818;stroke-width:0.5;" width="105.5176" x="1198.52" y="571.7583"/><text fill="#000000" font-family="sans-serif" font-size="14" lengthAdjust="spacing" textLength="58.96" x="1221.7988" y="595.2934">nutrition</text><text fill="#000000" font-family="sans-serif" font-size="14" lengthAdjust="spacing" textLength="85.5176" x="1208.52" y="611.7817">(BMR / KBJU)</text><text fill="#000000" font-family="sans-serif" font-size="14" lengthAdjust="spacing" textLength="40.1338" x="1231.2119" y="628.27">[pure]</text></g><!--entity S_targets--><g id="elem_S_targets"><rect fill="#F1F1F1" height="36.4883" rx="2.5" ry="2.5" style="stroke:#181818;stroke-width:0.5;" width="67.5986" x="1010.68" y="588.2483"/><text fill="#000000" font-family="sans-serif" font-size="14" lengthAdjust="spacing" textLength="47.5986" x="1020.68" y="611.7834">targets</text></g><!--entity S_reco--><g id="elem_S_reco"><rect fill="#F1F1F1" height="36.4883" rx="2.5" ry="2.5" style="stroke:#181818;stroke-width:0.5;" width="135.042" x="976.96" y="512.2483"/><text fill="#000000" font-family="sans-serif" font-size="14" lengthAdjust="spacing" textLength="115.042" x="986.96" y="535.7834">recommendation</text></g><!--entity S_recipes--><g id="elem_S_recipes"><rect fill="#F1F1F1" height="36.4883" rx="2.5" ry="2.5" style="stroke:#181818;stroke-width:0.5;" width="68.4941" x="1217.03" y="500.2483"/><text fill="#000000" font-family="sans-serif" font-size="14" lengthAdjust="spacing" textLength="48.4941" x="1227.03" y="523.7834">recipes</text></g><!--entity S_fridge--><g id="elem_S_fridge"><rect fill="#F1F1F1" height="36.4883" rx="2.5" ry="2.5" style="stroke:#181818;stroke-width:0.5;" width="60.2637" x="1014.35" y="383.2483"/><text fill="#000000" font-family="sans-serif" font-size="14" lengthAdjust="spacing" textLength="40.2637" x="1024.35" y="406.7834">fridge</text></g><!--entity S_receipt--><g id="elem_S_receipt"><rect fill="#F1F1F1" height="36.4883" rx="2.5" ry="2.5" style="stroke:#181818;stroke-width:0.5;" width="66.5938" x="1011.18" y="288.2483"/><text fill="#000000" font-family="sans-serif" font-size="14" lengthAdjust="spacing" textLength="46.5938" x="1021.18" y="311.7834">receipt</text></g><!--entity S_ocr--><g id="elem_S_ocr"><rect fill="#F1F1F1" height="36.4883" rx="2.5" ry="2.5" style="stroke:#181818;stroke-width:0.5;" width="41.499" x="1230.53" y="324.2483"/><text fill="#000000" font-family="sans-serif" font-size="14" lengthAdjust="spacing" textLength="21.499" x="1240.53" y="347.7834">ocr</text></g><!--entity S_check--><g id="elem_S_check"><rect fill="#F1F1F1" height="36.4883" rx="2.5" ry="2.5" style="stroke:#181818;stroke-width:0.5;" width="86.6025" x="1207.98" y="253.2483"/><text fill="#000000" font-family="sans-serif" font-size="14" lengthAdjust="spacing" textLength="66.6025" x="1217.98" y="276.7834">check_api</text></g><!--entity S_llm--><g id="elem_S_llm"><rect fill="#F1F1F1" height="69.4648" rx="2.5" ry="2.5" style="stroke:#181818;stroke-width:0.5;" width="137.6055" x="1182.47" y="395.7583"/><text fill="#000000" font-family="sans-serif" font-size="14" lengthAdjust="spacing" textLength="21.1641" x="1240.6907" y="419.2934">llm</text><text fill="#000000" font-family="sans-serif" font-size="14" lengthAdjust="spacing" textLength="117.6055" x="1192.47" y="435.7817">(provider adapter</text><text fill="#000000" font-family="sans-serif" font-size="14" lengthAdjust="spacing" textLength="57.1348" x="1222.7054" y="452.27">+ mock)</text></g><!--entity S_clf--><g id="elem_S_clf"><rect fill="#F1F1F1" height="52.9766" rx="2.5" ry="2.5" style="stroke:#181818;stroke-width:0.5;" width="144.8926" x="1178.83" y="164.9983"/><text fill="#000000" font-family="sans-serif" font-size="14" lengthAdjust="spacing" textLength="59.9922" x="1221.2802" y="188.5334">classifier</text><text fill="#000000" font-family="sans-serif" font-size="14" lengthAdjust="spacing" textLength="124.8926" x="1188.83" y="205.0217">(product category)</text></g><!--entity Models--><g id="elem_Models"><rect fill="#F1F1F1" height="52.9766" rx="2.5" ry="2.5" style="stroke:#181818;stroke-width:0.5;" width="157.5254" x="1661.94" y="120.9983"/><text fill="#000000" font-family="sans-serif" font-size="14" lengthAdjust="spacing" textLength="137.5254" x="1671.94" y="144.5334">SQLAlchemy models</text><text fill="#000000" font-family="sans-serif" font-size="14" lengthAdjust="spacing" textLength="74.293" x="1703.5562" y="161.0217">+ schemas</text></g><!--entity DB--><g id="elem_DB"><path d="M2040.68,170.2583 C2040.68,160.2583 2147.4666,160.2583 2147.4666,160.2583 C2147.4666,160.2583 2254.2532,160.2583 2254.2532,170.2583 L2254.2532,228.7231 C2254.2532,238.7231 2147.4666,238.7231 2147.4666,238.7231 C2147.4666,238.7231 2040.68,238.7231 2040.68,228.7231 L2040.68,170.2583 " fill="#F1F1F1" style="stroke:#181818;stroke-width:0.5;"/><path d="M2040.68,170.2583 C2040.68,180.2583 2147.4666,180.2583 2147.4666,180.2583 C2147.4666,180.2583 2254.2532,180.2583 2254.2532,170.2583 " fill="none" style="stroke:#181818;stroke-width:0.5;"/><text fill="#000000" font-family="sans-serif" font-size="14" lengthAdjust="spacing" textLength="42.9639" x="2125.9847" y="197.7934">SQLite</text><text fill="#000000" font-family="sans-serif" font-size="14" lengthAdjust="spacing" textLength="76.7471" x="2109.0931" y="214.2817">(fitfood.db)</text><text fill="#000000" font-family="sans-serif" font-size="14" lengthAdjust="spacing" textLength="193.5732" x="2050.68" y="230.77">[env-swappable &#8594; Postgres]</text></g><!--entity Seed--><g id="elem_Seed"><rect fill="#F1F1F1" height="52.9766" rx="2.5" ry="2.5" style="stroke:#181818;stroke-width:0.5;" width="124.7197" x="1678.34" y="208.9983"/><text fill="#000000" font-family="sans-serif" font-size="14" lengthAdjust="spacing" textLength="31.5479" x="1724.9259" y="232.5334">seed</text><text fill="#000000" font-family="sans-serif" font-size="14" lengthAdjust="spacing" textLength="104.7197" x="1688.34" y="249.0217">(+ CSV catalog)</text></g><!--entity MLModel--><g id="elem_MLModel"><rect fill="#F1F1F1" height="55.9766" rx="2.5" ry="2.5" style="stroke:#181818;stroke-width:0.5;" width="129.6543" x="1675.88" y="296.4983"/><polygon fill="#F1F1F1" points="1788.5343,301.4983,1788.5343,315.4983,1800.5343,315.4983,1800.5343,307.4983,1794.5343,301.4983,1788.5343,301.4983" style="stroke:#181818;stroke-width:0.5;"/><line style="stroke:#181818;stroke-width:0.5;" x1="1794.5343" x2="1794.5343" y1="301.4983" y2="307.4983"/><line style="stroke:#181818;stroke-width:0.5;" x1="1800.5343" x2="1794.5343" y1="307.4983" y2="307.4983"/><text fill="#000000" font-family="sans-serif" font-size="14" lengthAdjust="spacing" textLength="66.2813" x="1702.5665" y="323.0334">ML model</text><text fill="#000000" font-family="sans-serif" font-size="14" lengthAdjust="spacing" textLength="99.6543" x="1685.88" y="339.5217">(xgb classifier)</text></g><!--entity User--><g id="elem_User"><ellipse cx="37.8486" cy="961.4983" fill="#F1F1F1" rx="8" ry="8" style="stroke:#181818;stroke-width:0.5;"/><path d="M37.8486,969.4983 L37.8486,996.4983 M24.8486,977.4983 L50.8486,977.4983 M37.8486,996.4983 L24.8486,1011.4983 M37.8486,996.4983 L50.8486,1011.4983 " fill="none" style="stroke:#181818;stroke-width:0.5;"/><text fill="#000000" font-family="sans-serif" font-size="14" lengthAdjust="spacing" textLength="30.3652" x="22.666" y="1026.5334">User</text><text fill="#000000" font-family="sans-serif" font-size="14" lengthAdjust="spacing" textLength="63.6973" x="6" y="1043.0217">(browser)</text></g><!--link User to Frontend--><g id="link_User_Frontend"><path d="M69.99,999.4883 C114.39,999.4883 191.45,999.4883 254.39,999.4883 " fill="none" id="User-to-Frontend" style="stroke:#181818;stroke-width:1.0;"/><polygon fill="#181818" points="260.39,999.4883,251.39,995.4883,255.39,999.4883,251.39,1003.4883,260.39,999.4883" style="stroke:#181818;stroke-width:1.0;"/><text fill="#000000" font-family="sans-serif" font-size="13" lengthAdjust="spacing" textLength="127.042" x="100.7" y="996.0566">HTTPS (same origin)</text></g><!--link Frontend to API--><g id="link_Frontend_API"><path d="M428.18,999.4883 C480.18,999.4883 547.535,999.4883 602.5325,999.4883 C609.4072,999.4883 616.0888,999.4883 622.5232,999.4883 C625.7404,999.4883 628.8958,999.4883 631.9826,999.4883 C633.526,999.4883 635.0523,999.4883 636.5606,999.4883 C637.3147,999.4883 632.0643,999.4883 632.8094,999.4883 " fill="none" id="Frontend-to-API" style="stroke:#181818;stroke-width:1.0;"/><polygon fill="#181818" points="638.8094,999.4883,629.8094,995.4883,633.8094,999.4883,629.8094,1003.4883,638.8094,999.4883" style="stroke:#181818;stroke-width:1.0;"/><text fill="#000000" font-family="sans-serif" font-size="13" lengthAdjust="spacing" textLength="156.127" x="458.77" y="996.0566">REST / JSON (Bearer JWT)</text></g><!--link API to Core--><g id="link_API_Core"><path d="M722.0528,971.8348 C722.747,970.7699 723.461,969.6799 724.1944,968.5656 C735.9288,950.738 752.6425,926.7227 773.325,900.647 C814.69,848.4958 871.93,788.1033 936.96,752.4883 C942.1575,749.6408 947.6886,747.1913 953.3925,745.0849 C956.2445,744.0317 959.1396,743.0643 962.0579,742.1758 C962.7874,741.9537 963.5184,741.7365 964.2506,741.5241 C964.4336,741.471 958.8489,743.071 959.032,743.0186 " fill="none" id="API-to-Core" style="stroke:#181818;stroke-width:1.0;"/><polygon fill="#181818" points="964.7999,741.3658,955.0462,739.9997,959.9933,742.7431,957.25,747.6902,964.7999,741.3658" style="stroke:#181818;stroke-width:1.0;"/><text fill="#000000" font-family="sans-serif" font-size="13" lengthAdjust="spacing" textLength="153.0293" x="774.96" y="758.2166">authenticate / authorize</text></g><!--link API to Services--><g id="link_API_Services"><path d="M711.9973,971.822 C712.0622,971.5709 712.1275,971.3183 712.1932,971.0643 C712.3246,970.5562 712.4574,970.0422 712.5918,969.5225 C712.8606,968.483 713.1354,967.4205 713.4161,966.3355 C713.9774,964.1656 714.5623,961.9059 715.1693,959.5616 C716.3834,954.8729 717.6862,949.8458 719.0678,944.521 C721.8309,933.8715 724.9087,922.0317 728.22,909.3295 C741.465,858.5208 758.445,793.9133 773.96,736.4883 C844.58,475.0983 727.69,321.3083 936.96,149.4883 C941.475,145.7808 946.4916,142.8645 951.8179,140.6009 C952.1508,140.4595 946.9273,142.5817 947.2626,142.4453 " fill="none" id="API-to-Services" style="stroke:#181818;stroke-width:1.0;"/><polygon fill="#181818" points="952.8202,140.1841,942.9763,139.8708,948.1888,142.0685,945.9912,147.281,952.8202,140.1841" style="stroke:#181818;stroke-width:1.0;"/><text fill="#000000" font-family="sans-serif" font-size="13" lengthAdjust="spacing" textLength="139.2739" x="781.96" y="156.3466">orchestrate use-cases</text></g><!--link Services to Models--><g id="link_Services_Models"><path d="M1348.5896,144.1052 C1349.6442,144.1144 1350.6993,144.1235 1351.7549,144.1326 C1355.9775,144.1691 1360.2083,144.2056 1364.4447,144.2422 C1372.9175,144.3155 1381.4127,144.3889 1389.9102,144.4623 C1423.8998,144.756 1457.9238,145.05 1490.6781,145.333 C1556.1869,145.8989 1610.6177,146.369 1655.5402,146.7565 " fill="none" id="Services-to-Models" style="stroke:#181818;stroke-width:1.0;"/><polygon fill="#181818" points="1661.54,146.8083,1652.5748,142.7308,1656.5402,146.7652,1652.5058,150.7305,1661.54,146.8083" style="stroke:#181818;stroke-width:1.0;"/><text fill="#000000" font-family="sans-serif" font-size="13" lengthAdjust="spacing" textLength="74.166" x="1214.28" y="139.2166">read / write</text></g><!--link Models to DB--><g id="link_Models_DB"><path d="M1819.75,157.5183 C1882.46,165.5683 1965.239,176.2033 2034.399,185.0933 " fill="none" id="Models-to-DB" style="stroke:#181818;stroke-width:1.0;"/><polygon fill="#181818" points="2040.35,185.8583,2031.9334,180.7435,2035.3908,185.2208,2030.9135,188.6782,2040.35,185.8583" style="stroke:#181818;stroke-width:1.0;"/><text fill="#000000" font-family="sans-serif" font-size="13" lengthAdjust="spacing" textLength="111.2871" x="1898.68" y="165.3966">SQLAlchemy ORM</text></g><!--link Seed to DB--><g id="link_Seed_DB"><path d="M1803.46,231.6583 C1858.02,228.0883 1939.72,222.3083 2010.68,215.4883 C2020.37,214.5583 2024.4755,214.1698 2034.5455,213.0698 " fill="none" id="Seed-to-DB" style="stroke:#181818;stroke-width:1.0;"/><polygon fill="#181818" points="2040.51,212.4183,2031.1289,209.4192,2035.5396,212.9612,2031.9976,217.3719,2040.51,212.4183" style="stroke:#181818;stroke-width:1.0;"/><text fill="#000000" font-family="sans-serif" font-size="13" lengthAdjust="spacing" textLength="98.4395" x="1905.18" y="212.0566">startup seeding</text></g><!--link S_receipt to S_ocr--><g id="link_S_receipt_S_ocr"><path d="M1077.93,312.1883 C1120.68,319.7083 1188.6605,331.6598 1224.1705,337.8998 " fill="none" id="S_receipt-to-S_ocr" style="stroke:#181818;stroke-width:1.0;"/><polygon fill="#181818" points="1230.08,338.9383,1221.9081,333.441,1225.1555,338.0729,1220.5235,341.3203,1230.08,338.9383" style="stroke:#181818;stroke-width:1.0;"/></g><!--link S_receipt to S_llm--><g id="link_S_receipt_S_llm"><path d="M1076.14,325.0483 C1106.71,343.5683 1149.2973,369.3509 1187.0573,392.2109 " fill="none" id="S_receipt-to-S_llm" style="stroke:#181818;stroke-width:1.0;"/><polygon fill="#181818" points="1192.19,395.3183,1186.5625,387.2355,1187.9128,392.7288,1182.4194,394.0791,1192.19,395.3183" style="stroke:#181818;stroke-width:1.0;"/></g><!--link S_receipt to S_check--><g id="link_S_receipt_S_check"><path d="M1077.93,300.9383 C1113.01,294.9483 1163.1458,286.3795 1201.7458,279.7795 " fill="none" id="S_receipt-to-S_check" style="stroke:#181818;stroke-width:1.0;"/><polygon fill="#181818" points="1207.66,278.7683,1198.1146,276.3423,1202.7315,279.611,1199.4629,284.2279,1207.66,278.7683" style="stroke:#181818;stroke-width:1.0;"/></g><!--link S_receipt to S_clf--><g id="link_S_receipt_S_clf"><path d="M1078.12,304.2383 C1097.31,301.6683 1121.35,296.1783 1139.83,284.4883 C1163.36,269.6183 1158,253.9483 1178.83,235.4883 C1185.7,229.3983 1188.508,226.9618 1196.388,221.7418 " fill="none" id="S_receipt-to-S_clf" style="stroke:#181818;stroke-width:1.0;"/><polygon fill="#181818" points="1201.39,218.4283,1191.6779,220.0639,1197.2216,221.1896,1196.096,226.7333,1201.39,218.4283" style="stroke:#181818;stroke-width:1.0;"/></g><!--link S_clf to MLModel--><g id="link_S_clf_MLModel"><path d="M1324.2,211.1083 C1419.13,237.0183 1579.0415,280.6491 1669.8715,305.4291 " fill="none" id="S_clf-to-MLModel" style="stroke:#181818;stroke-width:1.0;stroke-dasharray:7.0,7.0;"/><polygon fill="#181818" points="1675.66,307.0083,1668.0301,300.7805,1670.8363,305.6923,1665.9245,308.4985,1675.66,307.0083" style="stroke:#181818;stroke-width:1.0;"/><text fill="#000000" font-family="sans-serif" font-size="13" lengthAdjust="spacing" textLength="27.1045" x="1464.22" y="221.9466">load</text></g><!--link S_reco to S_recipes--><g id="link_S_reco_S_recipes"><path d="M1112.25,526.5783 C1147.15,524.5283 1182.3703,522.4702 1210.6203,520.8102 " fill="none" id="S_reco-to-S_recipes" style="stroke:#181818;stroke-width:1.0;"/><polygon fill="#181818" points="1216.61,520.4583,1207.3909,516.9931,1211.6186,520.7516,1207.8601,524.9793,1216.61,520.4583" style="stroke:#181818;stroke-width:1.0;"/></g><!--link S_reco to S_nutrition--><g id="link_S_reco_S_nutrition"><path d="M1095.84,549.1783 C1126.99,560.7383 1161.265,573.4504 1192.705,585.1204 " fill="none" id="S_reco-to-S_nutrition" style="stroke:#181818;stroke-width:1.0;"/><polygon fill="#181818" points="1198.33,587.2083,1191.2844,580.3264,1193.6425,585.4684,1188.5006,587.8264,1198.33,587.2083" style="stroke:#181818;stroke-width:1.0;"/></g><!--link S_targets to S_nutrition--><g id="link_S_targets_S_nutrition"><path d="M1078.38,606.4883 C1110.72,606.4883 1154.57,606.4883 1192.27,606.4883 " fill="none" id="S_targets-to-S_nutrition" style="stroke:#181818;stroke-width:1.0;"/><polygon fill="#181818" points="1198.27,606.4883,1189.27,602.4883,1193.27,606.4883,1189.27,610.4883,1198.27,606.4883" style="stroke:#181818;stroke-width:1.0;"/></g><!--link S_llm to LLM--><g id="link_S_llm_LLM"><path d="M1320.35,448.0483 C1337.32,455.7783 1353.55,466.8183 1363.72,482.4883 C1377.97,504.4383 1365.66,928.0283 1371.72,953.4883 C1423.74,1172.0083 1422.87,1260.3583 1591.72,1408.4883 C1599.15,1414.9983 1602.2165,1417.7419 1611.0265,1422.6419 " fill="none" id="S_llm-to-LLM" style="stroke:#181818;stroke-width:1.0;"/><polygon fill="#181818" points="1616.27,1425.5583,1610.3489,1417.688,1611.9004,1423.128,1606.4604,1424.6794,1616.27,1425.5583" style="stroke:#181818;stroke-width:1.0;"/><text fill="#000000" font-family="sans-serif" font-size="13" lengthAdjust="spacing" textLength="101.5181" x="1427.0703" y="935.0566">chat completion</text><text fill="#000000" font-family="sans-serif" font-size="13" lengthAdjust="spacing" textLength="196.2188" x="1379.72" y="950.3672">(key from .env; mock if absent)</text></g><!--link S_check to FNS--><g id="link_S_check_FNS"><path d="M1295.04,275.7083 C1318,280.0383 1345.28,288.7983 1363.72,306.4883 C1383.78,325.7383 1667.1704,1148.3739 1726.8504,1322.0739 " fill="none" id="S_check-to-FNS" style="stroke:#181818;stroke-width:1.0;"/><polygon fill="#181818" points="1728.8,1327.7483,1729.6585,1317.9369,1727.1753,1323.0196,1722.0926,1320.5364,1728.8,1327.7483" style="stroke:#181818;stroke-width:1.0;"/><text fill="#000000" font-family="sans-serif" font-size="13" lengthAdjust="spacing" textLength="66.0093" x="1444.8865" y="306.7166">QR lookup</text><text fill="#000000" font-family="sans-serif" font-size="13" lengthAdjust="spacing" textLength="210.3423" x="1372.72" y="322.0272">(token from .env; mock if absent)</text></g><!--SRC=[VLNDRjj64BxpAGOwMGYitbKWW7yYDAvaEwAJ79h26953QgibbzXTsbQ303tr0Oe-OPuaCykb95EEByJkp3S_-yqFlVAQOARyp9WSll_pFwGUlShWaw97EBamLMDggZrSAYmjLkCaSHjLDyXdo7fjwhVinLBciIur7K3S6dFpgEeI2jJkK9DJWQtsT_JapxGgwqgYPFmXcsWgF7W3LfLh3xaIpyhKIOAPDnP67ntPB_N9off7Fer7W0v4bYGDPXii2KRldjXHZHhSrdcgt0Y-9W2PDcqEe_by0Oqr3oeFVcuQgfUcPGFu1UHozbuEMcE5dNCss5lFhbDvAwd6mzdjUtOWliXkC5lJ1YTCIsV5mEJRGKuzpITE2KqmG-VPWQIIaNETqLdJSAeIRSVzQ6ODyrBd7EgQ-PhyvS1rPQAdnbW__bBpwnyeXmU5iO8pfSbrQKHhSRhBHU9gtFAJJsnuUX-UvSBKi_ZO-dNGBk_bE5Hp_WL7YuXuUm6KjvbtUrIu3c4LSPym-nQbuZqwI8VGmggyxADsbo4abgbtqrzVWAc63b1oUm5aAkxI_5bc8cNajsVaNXZRvIM7OpeTPQrLVilblFfyr_5-SS_I8J2dnZ58E8UoHPkx7YoQex2Nfa9LWxI2ok9pqdWvpg9kFIV1J-48vuibS_xx-TL7RgK_cjRIdvtr_GurDFTeIuhCflVnzZfd4Hif-sa5qfzLuA3WwUi5t_kHsn1aCXi1V1egUOQppJqsAaB2VGZIkefZBoi4CCV6oofv0vN9DkDeogWZxngTKuKAUoVE06JegJHsszjbkZYkBNhi1ZQ0mlMefEc7-PdcXAijvv6JTfAH4m5sr2w2D9XnIN25ZeALyiJv5CeNl9yc-KgwWEg7K_U8JOChtbNV__qFRetpfINNzSRb-N5VawoeDt2HVf97eJPbV1Dh0XgjLmLlSHWjvbsERF1Khc1FJ6Unc8TS0m_CX6ntE3rzkrjcC8NVxkvkKrwcM14O_bMeUfpir8ALNJQ5vRlqZflxAhsvXfDpGikUPEoIHFI22rCw1HapVeUISh21NDdjtxJ3xMPfol6OLUUjG5j7fnapwP8TGD0TruorX3dxU-GveYHA1N1vpig3ajqi5uaGjLVoahU-RK28vLz6aknQkiidzEzG9bqtb7LDV2JbFWjVc4pUzenpM6qmxy0c8lk1V2RShuRT_1zfaf1F4CjFTmhP6dte6Krnzsne2uKr5KouutuD0mIg05mvBiOuYSbtnUS_xnG-B3b3isaRDlPcG_LhvZy0]--></g></svg>