<svg xmlns="http://www.w3.org/2000/svg" xmlns:xlink="http://www.w3.org/1999/xlink" contentStyleType="text/css" height="1071px" preserveAspectRatio="none" style="width:1704px;height:1071px;background:#FFFFFF;" version="1.1" viewBox="0 0 1704 1071" width="1704px" zoomAndPan="magnify"><title>FitFood &#8212; Dynamic View: Receipt scan -&gt; confirm -&gt; fridge</title><defs/><g><text fill="#000000" font-family="sans-serif" font-size="14" font-weight="bold" lengthAdjust="spacing" textLength="434.6221" x="630.8796" y="28.5352">FitFood &#8212; Dynamic View: Receipt scan -&gt; confirm -&gt; fridge</text><line style="stroke:#181818;stroke-width:0.5;stroke-dasharray:5.0,5.0;" x1="23" x2="23" y1="118.9766" y2="990.293"/><line style="stroke:#181818;stroke-width:0.5;stroke-dasharray:5.0,5.0;" x1="350.9292" x2="350.9292" y1="118.9766" y2="990.293"/><line style="stroke:#181818;stroke-width:0.5;stroke-dasharray:5.0,5.0;" x1="641.8647" x2="641.8647" y1="118.9766" y2="990.293"/><line style="stroke:#181818;stroke-width:0.5;stroke-dasharray:5.0,5.0;" x1="933.4966" x2="933.4966" y1="118.9766" y2="990.293"/><line style="stroke:#181818;stroke-width:0.5;stroke-dasharray:5.0,5.0;" x1="1070.3984" x2="1070.3984" y1="118.9766" y2="990.293"/><line style="stroke:#181818;stroke-width:0.5;stroke-dasharray:5.0,5.0;" x1="1199.6899" x2="1199.6899" y1="118.9766" y2="990.293"/><line style="stroke:#181818;stroke-width:0.5;stroke-dasharray:5.0,5.0;" x1="1289.2124" x2="1289.2124" y1="118.9766" y2="990.293"/><line style="stroke:#181818;stroke-width:0.5;stroke-dasharray:5.0,5.0;" x1="1389.2046" x2="1389.2046" y1="118.9766" y2="990.293"/><line style="stroke:#181818;stroke-width:0.5;stroke-dasharray:5.0,5.0;" x1="1555.2271" x2="1555.2271" y1="118.9766" y2="990.293"/><line style="stroke:#181818;stroke-width:0.5;stroke-dasharray:5.0,5.0;" x1="1641.1909" x2="1641.1909" y1="118.9766" y2="990.293"/><text fill="#000000" font-family="sans-serif" font-size="14" lengthAdjust="spacing" textLength="30.3652" x="5" y="116.0234">User</text><ellipse cx="23.1826" cy="50.9883" fill="#E2E2F0" rx="8" ry="8" style="stroke:#181818;stroke-width:0.5;"/><path d="M23.1826,58.9883 L23.1826,85.9883 M10.1826,66.9883 L36.1826,66.9883 M23.1826,85.9883 L10.1826,100.9883 M23.1826,85.9883 L36.1826,100.9883 " fill="none" style="stroke:#181818;stroke-width:0.5;"/><text fill="#000000" font-family="sans-serif" font-size="14" lengthAdjust="spacing" textLength="30.3652" x="5" y="1002.8281">User</text><ellipse cx="23.1826" cy="1014.2813" fill="#E2E2F0" rx="8" ry="8" style="stroke:#181818;stroke-width:0.5;"/><path d="M23.1826,1022.2813 L23.1826,1049.2813 M10.1826,1030.2813 L36.1826,1030.2813 M23.1826,1049.2813 L10.1826,1064.2813 M23.1826,1049.2813 L36.1826,1064.2813 " fill="none" style="stroke:#181818;stroke-width:0.5;"/><rect fill="#E2E2F0" height="46.9766" rx="2.5" ry="2.5" style="stroke:#181818;stroke-width:0.5;" width="75.0586" x="313.9292" y="71"/><text fill="#000000" font-family="sans-serif" font-size="14" lengthAdjust="spacing" textLength="61.0586" x="320.9292" y="91.5352">Frontend</text><text fill="#000000" font-family="sans-serif" font-size="14" lengthAdjust="spacing" textLength="56.8955" x="323.0107" y="108.0234">(Next.js)</text><rect fill="#E2E2F0" height="46.9766" rx="2.5" ry="2.5" style="stroke:#181818;stroke-width:0.5;" width="75.0586" x="313.9292" y="989.293"/><text fill="#000000" font-family="sans-serif" font-size="14" lengthAdjust="spacing" textLength="61.0586" x="320.9292" y="1009.8281">Frontend</text><text fill="#000000" font-family="sans-serif" font-size="14" lengthAdjust="spacing" textLength="56.8955" x="323.0107" y="1026.3164">(Next.js)</text><rect fill="#E2E2F0" height="30.4883" rx="2.5" ry="2.5" style="stroke:#181818;stroke-width:0.5;" width="113.9414" x="585.8647" y="87.4883"/><text fill="#000000" font-family="sans-serif" font-size="14" lengthAdjust="spacing" textLength="99.9414" x="592.8647" y="108.0234">receipts router</text><rect fill="#E2E2F0" height="30.4883" rx="2.5" ry="2.5" style="stroke:#181818;stroke-width:0.5;" width="113.9414" x="585.8647" y="989.293"/><text fill="#000000" font-family="sans-serif" font-size="14" lengthAdjust="spacing" textLength="99.9414" x="592.8647" y="1009.8281">receipts router</text><rect fill="#E2E2F0" height="30.4883" rx="2.5" ry="2.5" style="stroke:#181818;stroke-width:0.5;" width="111.9521" x="878.4966" y="87.4883"/><text fill="#000000" font-family="sans-serif" font-size="14" lengthAdjust="spacing" textLength="97.9521" x="885.4966" y="108.0234">receipt service</text><rect fill="#E2E2F0" height="30.4883" rx="2.5" ry="2.5" style="stroke:#181818;stroke-width:0.5;" width="111.9521" x="878.4966" y="989.293"/><text fill="#000000" font-family="sans-serif" font-size="14" lengthAdjust="spacing" textLength="97.9521" x="885.4966" y="1009.8281">receipt service</text><rect fill="#E2E2F0" height="30.4883" rx="2.5" ry="2.5" style="stroke:#181818;stroke-width:0.5;" width="86.8574" x="1027.3984" y="87.4883"/><text fill="#000000" font-family="sans-serif" font-size="14" lengthAdjust="spacing" textLength="72.8574" x="1034.3984" y="108.0234">ocr service</text><rect fill="#E2E2F0" height="30.4883" rx="2.5" ry="2.5" style="stroke:#181818;stroke-width:0.5;" width="86.8574" x="1027.3984" y="989.293"/><text fill="#000000" font-family="sans-serif" font-size="14" lengthAdjust="spacing" textLength="72.8574" x="1034.3984" y="1009.8281">ocr service</text><rect fill="#E2E2F0" height="30.4883" rx="2.5" ry="2.5" style="stroke:#181818;stroke-width:0.5;" width="86.5225" x="1156.6899" y="87.4883"/><text fill="#000000" font-family="sans-serif" font-size="14" lengthAdjust="spacing" textLength="72.5225" x="1163.6899" y="108.0234">llm service</text><rect fill="#E2E2F0" height="30.4883" rx="2.5" ry="2.5" style="stroke:#181818;stroke-width:0.5;" width="86.5225" x="1156.6899" y="989.293"/><text fill="#000000" font-family="sans-serif" font-size="14" lengthAdjust="spacing" textLength="72.5225" x="1163.6899" y="1009.8281">llm service</text><rect fill="#E2E2F0" height="30.4883" rx="2.5" ry="2.5" style="stroke:#181818;stroke-width:0.5;" width="73.9922" x="1253.2124" y="87.4883"/><text fill="#000000" font-family="sans-serif" font-size="14" lengthAdjust="spacing" textLength="59.9922" x="1260.2124" y="108.0234">classifier</text><rect fill="#E2E2F0" height="30.4883" rx="2.5" ry="2.5" style="stroke:#181818;stroke-width:0.5;" width="73.9922" x="1253.2124" y="989.293"/><text fill="#000000" font-family="sans-serif" font-size="14" lengthAdjust="spacing" textLength="59.9922" x="1260.2124" y="1009.8281">classifier</text><rect fill="#E2E2F0" height="30.4883" rx="2.5" ry="2.5" style="stroke:#181818;stroke-width:0.5;" width="105.6221" x="1337.2046" y="87.4883"/><text fill="#000000" font-family="sans-serif" font-size="14" lengthAdjust="spacing" textLength="91.6221" x="1344.2046" y="108.0234">fridge service</text><rect fill="#E2E2F0" height="30.4883" rx="2.5" ry="2.5" style="stroke:#181818;stroke-width:0.5;" width="105.6221" x="1337.2046" y="989.293"/><text fill="#000000" font-family="sans-serif" font-size="14" lengthAdjust="spacing" textLength="91.6221" x="1344.2046" y="1009.8281">fridge service</text><text fill="#000000" font-family="sans-serif" font-size="14" lengthAdjust="spacing" textLength="42.9639" x="1531.2271" y="116.0234">SQLite</text><path d="M1537.709,66.4883 C1537.709,56.4883 1555.709,56.4883 1555.709,56.4883 C1555.709,56.4883 1573.709,56.4883 1573.709,66.4883 L1573.709,92.4883 C1573.709,102.4883 1555.709,102.4883 1555.709,102.4883 C1555.709,102.4883 1537.709,102.4883 1537.709,92.4883 L1537.709,66.4883 " fill="#E2E2F0" style="stroke:#181818;stroke-width:1.5;"/><path d="M1537.709,66.4883 C1537.709,76.4883 1555.709,76.4883 1555.709,76.4883 C1555.709,76.4883 1573.709,76.4883 1573.709,66.4883 " fill="none" style="stroke:#181818;stroke-width:1.5;"/><text fill="#000000" font-family="sans-serif" font-size="14" lengthAdjust="spacing" textLength="42.9639" x="1531.2271" y="1002.8281">SQLite</text><path d="M1537.709,1015.7813 C1537.709,1005.7813 1555.709,1005.7813 1555.709,1005.7813 C1555.709,1005.7813 1573.709,1005.7813 1573.709,1015.7813 L1573.709,1041.7813 C1573.709,1051.7813 1555.709,1051.7813 1555.709,1051.7813 C1555.709,1051.7813 1537.709,1051.7813 1537.709,1041.7813 L1537.709,1015.7813 " fill="#E2E2F0" style="stroke:#181818;stroke-width:1.5;"/><path d="M1537.709,1015.7813 C1537.709,1025.7813 1555.709,1025.7813 1555.709,1025.7813 C1555.709,1025.7813 1573.709,1025.7813 1573.709,1015.7813 " fill="none" style="stroke:#181818;stroke-width:1.5;"/><rect fill="#E2E2F0" height="46.9766" rx="2.5" ry="2.5" style="stroke:#181818;stroke-width:0.5;" width="102.1904" x="1590.1909" y="71"/><text fill="#000000" font-family="sans-serif" font-size="14" lengthAdjust="spacing" textLength="88.1904" x="1597.1909" y="91.5352">LLM provider</text><text fill="#000000" font-family="sans-serif" font-size="14" lengthAdjust="spacing" textLength="64.7227" x="1608.9248" y="108.0234">(external)</text><rect fill="#E2E2F0" height="46.9766" rx="2.5" ry="2.5" style="stroke:#181818;stroke-width:0.5;" width="102.1904" x="1590.1909" y="989.293"/><text fill="#000000" font-family="sans-serif" font-size="14" lengthAdjust="spacing" textLength="88.1904" x="1597.1909" y="1009.8281">LLM provider</text><text fill="#000000" font-family="sans-serif" font-size="14" lengthAdjust="spacing" textLength="64.7227" x="1608.9248" y="1026.3164">(external)</text><rect fill="#EEEEEE" height="3" style="stroke:#EEEEEE;stroke-width:1.0;" width="1697.3813" x="0" y="149.6318"/><line style="stroke:#000000;stroke-width:1.0;" x1="0" x2="1697.3813" y1="149.6318" y2="149.6318"/><line style="stroke:#000000;stroke-width:1.0;" x1="0" x2="1697.3813" y1="152.6318" y2="152.6318"/><rect fill="#EEEEEE" height="23.3105" style="stroke:#000000;stroke-width:2.0;" width="48.8105" x="824.2854" y="138.9766"/><text fill="#000000" font-family="sans-serif" font-size="13" font-weight="bold" lengthAdjust="spacing" textLength="30.5259" x="830.2854" y="155.5449">Scan</text><polygon fill="#181818" points="339.4585,189.5977,349.4585,193.5977,339.4585,197.5977,343.4585,193.5977" style="stroke:#181818;stroke-width:1.0;"/><line style="stroke:#181818;stroke-width:1.0;" x1="23.1826" x2="345.4585" y1="193.5977" y2="193.5977"/><text fill="#000000" font-family="sans-serif" font-size="13" font-weight="bold" lengthAdjust="spacing" textLength="8.5757" x="30.1826" y="188.8555">1</text><text fill="#000000" font-family="sans-serif" font-size="13" lengthAdjust="spacing" textLength="277.0688" x="42.7583" y="188.8555">Upload receipt photo / paste text / scan QR</text><polygon fill="#181818" points="630.8354,218.9082,640.8354,222.9082,630.8354,226.9082,634.8354,222.9082" style="stroke:#181818;stroke-width:1.0;"/><line style="stroke:#181818;stroke-width:1.0;" x1="351.4585" x2="636.8354" y1="222.9082" y2="222.9082"/><text fill="#000000" font-family="sans-serif" font-size="13" font-weight="bold" lengthAdjust="spacing" textLength="8.5757" x="358.4585" y="218.166">2</text><text fill="#000000" font-family="sans-serif" font-size="13" lengthAdjust="spacing" textLength="164.6328" x="371.0342" y="218.166">POST /receipts/scan (JWT)</text><polygon fill="#181818" points="922.4727,248.2188,932.4727,252.2188,922.4727,256.2188,926.4727,252.2188" style="stroke:#181818;stroke-width:1.0;"/><line style="stroke:#181818;stroke-width:1.0;" x1="642.8354" x2="928.4727" y1="252.2188" y2="252.2188"/><text fill="#000000" font-family="sans-serif" font-size="13" font-weight="bold" lengthAdjust="spacing" textLength="8.5757" x="649.8354" y="247.4766">3</text><text fill="#000000" font-family="sans-serif" font-size="13" lengthAdjust="spacing" textLength="212.5259" x="662.4111" y="247.4766">process_receipt(user, image/text)</text><polygon fill="#181818" points="1058.8271,277.5293,1068.8271,281.5293,1058.8271,285.5293,1062.8271,281.5293" style="stroke:#181818;stroke-width:1.0;"/><line style="stroke:#181818;stroke-width:1.0;" x1="934.4727" x2="1064.8271" y1="281.5293" y2="281.5293"/><text fill="#000000" font-family="sans-serif" font-size="13" font-weight="bold" lengthAdjust="spacing" textLength="8.5757" x="941.4727" y="276.7871">4</text><text fill="#000000" font-family="sans-serif" font-size="13" lengthAdjust="spacing" textLength="99.7788" x="954.0483" y="276.7871">extract raw text</text><polygon fill="#181818" points="945.4727,306.8398,935.4727,310.8398,945.4727,314.8398,941.4727,310.8398" style="stroke:#181818;stroke-width:1.0;"/><line style="stroke:#181818;stroke-width:1.0;stroke-dasharray:2.0,2.0;" x1="939.4727" x2="1069.8271" y1="310.8398" y2="310.8398"/><text fill="#000000" font-family="sans-serif" font-size="13" font-weight="bold" lengthAdjust="spacing" textLength="8.5757" x="951.4727" y="306.0977">5</text><text fill="#000000" font-family="sans-serif" font-size="13" lengthAdjust="spacing" textLength="56.0815" x="964.0483" y="306.0977">raw lines</text><polygon fill="#181818" points="1187.9512,351.4609,1197.9512,355.4609,1187.9512,359.4609,1191.9512,355.4609" style="stroke:#181818;stroke-width:1.0;"/><line style="stroke:#181818;stroke-width:1.0;" x1="934.4727" x2="1193.9512" y1="355.4609" y2="355.4609"/><text fill="#000000" font-family="sans-serif" font-size="13" font-weight="bold" lengthAdjust="spacing" textLength="8.5757" x="941.4727" y="343.0635">6</text><text fill="#000000" font-family="sans-serif" font-size="13" lengthAdjust="spacing" textLength="159.0215" x="954.0483" y="335.4082">parse -&gt; food items only</text><text fill="#000000" font-family="sans-serif" font-size="13" lengthAdjust="spacing" textLength="124.1221" x="954.0483" y="350.7188">(name, qty, expiry?)</text><polygon fill="#181818" points="1629.2861,396.082,1639.2861,400.082,1629.2861,404.082,1633.2861,400.082" style="stroke:#181818;stroke-width:1.0;"/><line style="stroke:#181818;stroke-width:1.0;" x1="1199.9512" x2="1635.2861" y1="400.082" y2="400.082"/><text fill="#000000" font-family="sans-serif" font-size="13" font-weight="bold" lengthAdjust="spacing" textLength="8.5757" x="1206.9512" y="387.6846">7</text><text fill="#000000" font-family="sans-serif" font-size="13" lengthAdjust="spacing" textLength="101.5181" x="1219.5269" y="380.0293">chat completion</text><text fill="#000000" font-family="sans-serif" font-size="13" lengthAdjust="spacing" textLength="125.4106" x="1219.5269" y="395.3398">(mock if no API key)</text><polygon fill="#181818" points="1210.9512,425.3926,1200.9512,429.3926,1210.9512,433.3926,1206.9512,429.3926" style="stroke:#181818;stroke-width:1.0;"/><line style="stroke:#181818;stroke-width:1.0;stroke-dasharray:2.0,2.0;" x1="1204.9512" x2="1640.2861" y1="429.3926" y2="429.3926"/><text fill="#000000" font-family="sans-serif" font-size="13" font-weight="bold" lengthAdjust="spacing" textLength="8.5757" x="1216.9512" y="424.6504">8</text><text fill="#000000" font-family="sans-serif" font-size="13" lengthAdjust="spacing" textLength="103.9492" x="1229.5269" y="424.6504">structured items</text><polygon fill="#181818" points="945.4727,454.7031,935.4727,458.7031,945.4727,462.7031,941.4727,458.7031" style="stroke:#181818;stroke-width:1.0;"/><line style="stroke:#181818;stroke-width:1.0;stroke-dasharray:2.0,2.0;" x1="939.4727" x2="1198.9512" y1="458.7031" y2="458.7031"/><text fill="#000000" font-family="sans-serif" font-size="13" font-weight="bold" lengthAdjust="spacing" textLength="8.5757" x="951.4727" y="453.9609">9</text><text fill="#000000" font-family="sans-serif" font-size="13" lengthAdjust="spacing" textLength="228.9028" x="964.0483" y="453.9609">parsed items (non-food filtered out)</text><polygon fill="#181818" points="1278.2085,484.0137,1288.2085,488.0137,1278.2085,492.0137,1282.2085,488.0137" style="stroke:#181818;stroke-width:1.0;"/><line style="stroke:#181818;stroke-width:1.0;" x1="934.4727" x2="1284.2085" y1="488.0137" y2="488.0137"/><text fill="#000000" font-family="sans-serif" font-size="13" font-weight="bold" lengthAdjust="spacing" textLength="17.1514" x="941.4727" y="483.2715">10</text><text fill="#000000" font-family="sans-serif" font-size="13" lengthAdjust="spacing" textLength="161.4082" x="962.624" y="483.2715">classify category per item</text><polygon fill="#181818" points="945.4727,513.3242,935.4727,517.3242,945.4727,521.3242,941.4727,517.3242" style="stroke:#181818;stroke-width:1.0;"/><line style="stroke:#181818;stroke-width:1.0;stroke-dasharray:2.0,2.0;" x1="939.4727" x2="1289.2085" y1="517.3242" y2="517.3242"/><text fill="#000000" font-family="sans-serif" font-size="13" font-weight="bold" lengthAdjust="spacing" textLength="17.1514" x="951.4727" y="512.582">11</text><text fill="#000000" font-family="sans-serif" font-size="13" lengthAdjust="spacing" textLength="155.1748" x="972.624" y="512.582">category (or "discarded")</text><polygon fill="#181818" points="1543.709,542.6348,1553.709,546.6348,1543.709,550.6348,1547.709,546.6348" style="stroke:#181818;stroke-width:1.0;"/><line style="stroke:#181818;stroke-width:1.0;" x1="934.4727" x2="1549.709" y1="546.6348" y2="546.6348"/><text fill="#000000" font-family="sans-serif" font-size="13" font-weight="bold" lengthAdjust="spacing" textLength="17.1514" x="941.4727" y="541.8926">12</text><text fill="#000000" font-family="sans-serif" font-size="13" lengthAdjust="spacing" textLength="277.9321" x="962.624" y="541.8926">persist Receipt(status=pending) + positions</text><polygon fill="#181818" points="653.8354,571.9453,643.8354,575.9453,653.8354,579.9453,649.8354,575.9453" style="stroke:#181818;stroke-width:1.0;"/><line style="stroke:#181818;stroke-width:1.0;stroke-dasharray:2.0,2.0;" x1="647.8354" x2="933.4727" y1="575.9453" y2="575.9453"/><text fill="#000000" font-family="sans-serif" font-size="13" font-weight="bold" lengthAdjust="spacing" textLength="17.1514" x="659.8354" y="571.2031">13</text><text fill="#000000" font-family="sans-serif" font-size="13" lengthAdjust="spacing" textLength="246.4858" x="680.9868" y="571.2031">ReceiptOut (positions for confirmation)</text><polygon fill="#181818" points="362.4585,601.2559,352.4585,605.2559,362.4585,609.2559,358.4585,605.2559" style="stroke:#181818;stroke-width:1.0;"/><line style="stroke:#181818;stroke-width:1.0;stroke-dasharray:2.0,2.0;" x1="356.4585" x2="641.8354" y1="605.2559" y2="605.2559"/><text fill="#000000" font-family="sans-serif" font-size="13" font-weight="bold" lengthAdjust="spacing" textLength="17.1514" x="368.4585" y="600.5137">14</text><text fill="#000000" font-family="sans-serif" font-size="13" lengthAdjust="spacing" textLength="246.2256" x="389.6099" y="600.5137">201 + positions (accepted / discarded)</text><polygon fill="#181818" points="34.1826,645.877,24.1826,649.877,34.1826,653.877,30.1826,649.877" style="stroke:#181818;stroke-width:1.0;"/><line style="stroke:#181818;stroke-width:1.0;stroke-dasharray:2.0,2.0;" x1="28.1826" x2="350.4585" y1="649.877" y2="649.877"/><text fill="#000000" font-family="sans-serif" font-size="13" font-weight="bold" lengthAdjust="spacing" textLength="17.1514" x="40.1826" y="637.4795">15</text><text fill="#000000" font-family="sans-serif" font-size="13" lengthAdjust="spacing" textLength="88.48" x="61.334" y="629.8242">Review screen</text><text fill="#000000" font-family="sans-serif" font-size="13" lengthAdjust="spacing" textLength="283.1245" x="61.334" y="645.1348">("soap - discarded, broccoli - vegetables ...")</text><rect fill="#EEEEEE" height="3" style="stroke:#EEEEEE;stroke-width:1.0;" width="1697.3813" x="0" y="678.5322"/><line style="stroke:#000000;stroke-width:1.0;" x1="0" x2="1697.3813" y1="678.5322" y2="678.5322"/><line style="stroke:#000000;stroke-width:1.0;" x1="0" x2="1697.3813" y1="681.5322" y2="681.5322"/><rect fill="#EEEEEE" height="23.3105" style="stroke:#000000;stroke-width:2.0;" width="72.519" x="812.4312" y="667.877"/><text fill="#000000" font-family="sans-serif" font-size="13" font-weight="bold" lengthAdjust="spacing" textLength="54.2344" x="818.4312" y="684.4453">Confirm</text><polygon fill="#181818" points="339.4585,718.498,349.4585,722.498,339.4585,726.498,343.4585,722.498" style="stroke:#181818;stroke-width:1.0;"/><line style="stroke:#181818;stroke-width:1.0;" x1="23.1826" x2="345.4585" y1="722.498" y2="722.498"/><text fill="#000000" font-family="sans-serif" font-size="13" font-weight="bold" lengthAdjust="spacing" textLength="17.1514" x="30.1826" y="717.7559">16</text><text fill="#000000" font-family="sans-serif" font-size="13" lengthAdjust="spacing" textLength="130.438" x="51.334" y="717.7559">Approve / edit items</text><polygon fill="#181818" points="630.8354,747.8086,640.8354,751.8086,630.8354,755.8086,634.8354,751.8086" style="stroke:#181818;stroke-width:1.0;"/><line style="stroke:#181818;stroke-width:1.0;" x1="351.4585" x2="636.8354" y1="751.8086" y2="751.8086"/><text fill="#000000" font-family="sans-serif" font-size="13" font-weight="bold" lengthAdjust="spacing" textLength="17.1514" x="358.4585" y="747.0664">17</text><text fill="#000000" font-family="sans-serif" font-size="13" lengthAdjust="spacing" textLength="176.0649" x="379.6099" y="747.0664">POST /receipts/{id}/confirm</text><polygon fill="#181818" points="922.4727,777.1191,932.4727,781.1191,922.4727,785.1191,926.4727,781.1191" style="stroke:#181818;stroke-width:1.0;"/><line style="stroke:#181818;stroke-width:1.0;" x1="642.8354" x2="928.4727" y1="781.1191" y2="781.1191"/><text fill="#000000" font-family="sans-serif" font-size="13" font-weight="bold" lengthAdjust="spacing" textLength="17.1514" x="649.8354" y="776.377">18</text><text fill="#000000" font-family="sans-serif" font-size="13" lengthAdjust="spacing" textLength="177.0361" x="670.9868" y="776.377">confirm_receipt(user, items)</text><polygon fill="#181818" points="1378.0156,821.7402,1388.0156,825.7402,1378.0156,829.7402,1382.0156,825.7402" style="stroke:#181818;stroke-width:1.0;"/><line style="stroke:#181818;stroke-width:1.0;" x1="934.4727" x2="1384.0156" y1="825.7402" y2="825.7402"/><text fill="#000000" font-family="sans-serif" font-size="13" font-weight="bold" lengthAdjust="spacing" textLength="17.1514" x="941.4727" y="813.3428">19</text><text fill="#000000" font-family="sans-serif" font-size="13" lengthAdjust="spacing" textLength="183.8599" x="962.624" y="805.6875">add approved items to fridge</text><text fill="#000000" font-family="sans-serif" font-size="13" lengthAdjust="spacing" textLength="165.4199" x="962.624" y="820.998">(dedupe, expiry, category)</text><polygon fill="#181818" points="1543.709,851.0508,1553.709,855.0508,1543.709,859.0508,1547.709,855.0508" style="stroke:#181818;stroke-width:1.0;"/><line style="stroke:#181818;stroke-width:1.0;" x1="1390.0156" x2="1549.709" y1="855.0508" y2="855.0508"/><text fill="#000000" font-family="sans-serif" font-size="13" font-weight="bold" lengthAdjust="spacing" textLength="17.1514" x="1397.0156" y="850.3086">20</text><text fill="#000000" font-family="sans-serif" font-size="13" lengthAdjust="spacing" textLength="120.542" x="1418.167" y="850.3086">upsert fridge items</text><polygon fill="#181818" points="945.4727,880.3613,935.4727,884.3613,945.4727,888.3613,941.4727,884.3613" style="stroke:#181818;stroke-width:1.0;"/><line style="stroke:#181818;stroke-width:1.0;stroke-dasharray:2.0,2.0;" x1="939.4727" x2="1389.0156" y1="884.3613" y2="884.3613"/><text fill="#000000" font-family="sans-serif" font-size="13" font-weight="bold" lengthAdjust="spacing" textLength="17.1514" x="951.4727" y="879.6191">21</text><text fill="#000000" font-family="sans-serif" font-size="13" lengthAdjust="spacing" textLength="74.6992" x="972.624" y="879.6191">saved items</text><polygon fill="#181818" points="653.8354,909.6719,643.8354,913.6719,653.8354,917.6719,649.8354,913.6719" style="stroke:#181818;stroke-width:1.0;"/><line style="stroke:#181818;stroke-width:1.0;stroke-dasharray:2.0,2.0;" x1="647.8354" x2="933.4727" y1="913.6719" y2="913.6719"/><text fill="#000000" font-family="sans-serif" font-size="13" font-weight="bold" lengthAdjust="spacing" textLength="17.1514" x="659.8354" y="908.9297">22</text><text fill="#000000" font-family="sans-serif" font-size="13" lengthAdjust="spacing" textLength="76.1274" x="680.9868" y="908.9297">fridge items</text><polygon fill="#181818" points="362.4585,938.9824,352.4585,942.9824,362.4585,946.9824,358.4585,942.9824" style="stroke:#181818;stroke-width:1.0;"/><line style="stroke:#181818;stroke-width:1.0;stroke-dasharray:2.0,2.0;" x1="356.4585" x2="641.8354" y1="942.9824" y2="942.9824"/><text fill="#000000" font-family="sans-serif" font-size="13" font-weight="bold" lengthAdjust="spacing" textLength="17.1514" x="368.4585" y="938.2402">23</text><text fill="#000000" font-family="sans-serif" font-size="13" lengthAdjust="spacing" textLength="119.3486" x="389.6099" y="938.2402">200 + fridge items</text><polygon fill="#181818" points="34.1826,968.293,24.1826,972.293,34.1826,976.293,30.1826,972.293" style="stroke:#181818;stroke-width:1.0;"/><line style="stroke:#181818;stroke-width:1.0;stroke-dasharray:2.0,2.0;" x1="28.1826" x2="350.4585" y1="972.293" y2="972.293"/><text fill="#000000" font-family="sans-serif" font-size="13" font-weight="bold" lengthAdjust="spacing" textLength="17.1514" x="40.1826" y="967.5508">24</text><text fill="#000000" font-family="sans-serif" font-size="13" lengthAdjust="spacing" textLength="95.5894" x="61.334" y="967.5508">Fridge updated</text><!--SRC=[TLJRZjCm47ttLupwb8XU5XvNAcXlaK25tMswm0CIyjhJhjd4DhRJ9K98V0HVo9SmpescWhTsVEPspfa45Gg4J8NC60c_V_w2orhpKWbuh_3f5DOeKDa0Nd0DivSWZDugLyQVMwVa3XdpZqfRxdW9_e5BywJq3hQyyCXu5OokodjqZ74HZ8CxJxy979HGbki0aymP7L3BJpfvXz_2_8jF9y0zP5TZd6i7yU1C5T0rcFK_8K0zzafW0ycFC4QuqVlrnH6WACeHOBLwEmQ8WdkljggRuMALZTzRMiP3P4pomE-vHvZajoiLslZb-JYLUe5rPgyaEkA3w42dUT4ISlLnmzXo2NbKOhbaaSeeGtO5ft1d2yCbz0pO1nCCBC1o7n025Q8_ZOItQqO9bBQch9lhV0EBdjb50qZUVDYaR1qXUSJGF0Az_zoXaehQJa6LV8UBM3XbUGCc8WbD0KTAW-DFJLiMmxE-LemMIgFlSkA-r84xuYKQAbgGk2az65tKn00v4QVmDTHJgcoLgr-bB2OHcEYWNF700tcoj0K6PJIbb4OyWjg2Dd1syneUiKvPnCw6VZwuIeJAOTUihJZi6wVfnqYqqRDchAqgI0nw8FVrAvFqSOJM3pK87d1dN0sMX8dvB0A6miDpGdSmaOhOTXBbfAzsUHwxe_FAX_xi4XzugFpIqe7GMQNm3ApnAgxQSjW9sS6lgm39020-NN-lF4OQMNl7l3XvVbWD4Yu4sa0RBc0OBctCGYcDsMAVFNqLo4aECP8zyOPRcFrDcC8z-KMOGb5qZpiarnVeOJwVqwBHlXVT1-JOmMSsEX-fEqeLEcN-QzNlIlvOTBiTcBMB79irrkffpgDcN4hWRSDUQhgNzd9fBLgaijXxRZf8HpMoGQhAKl7G9NNpvWTwUpuKFvHgX1_fSK9wZ5x7t6VjKsNfKuAI_G40]--></g></svg>