<svg id="my-svg" width="100%" xmlns="http://www.w3.org/2000/svg" xmlns:xlink="http://www.w3.org/1999/xlink" class="flowchart" style="max-width: 1828.34px; background-color: white;" viewBox="0 0 1828.341552734375 985.4346923828125" role="graphics-document document" aria-roledescription="flowchart-v2"><style>#my-svg{font-family:"trebuchet ms",verdana,arial,sans-serif;font-size:16px;fill:#333;}@keyframes edge-animation-frame{from{stroke-dashoffset:0;}}@keyframes dash{to{stroke-dashoffset:0;}}#my-svg .edge-animation-slow{stroke-dasharray:9,5!important;stroke-dashoffset:900;animation:dash 50s linear infinite;stroke-linecap:round;}#my-svg .edge-animation-fast{stroke-dasharray:9,5!important;stroke-dashoffset:900;animation:dash 20s linear infinite;stroke-linecap:round;}#my-svg .error-icon{fill:#552222;}#my-svg .error-text{fill:#552222;stroke:#552222;}#my-svg .edge-thickness-normal{stroke-width:1px;}#my-svg .edge-thickness-thick{stroke-width:3.5px;}#my-svg .edge-pattern-solid{stroke-dasharray:0;}#my-svg .edge-thickness-invisible{stroke-width:0;fill:none;}#my-svg .edge-pattern-dashed{stroke-dasharray:3;}#my-svg .edge-pattern-dotted{stroke-dasharray:2;}#my-svg .marker{fill:#333333;stroke:#333333;}#my-svg .marker.cross{stroke:#333333;}#my-svg svg{font-family:"trebuchet ms",verdana,arial,sans-serif;font-size:16px;}#my-svg p{margin:0;}#my-svg .label{font-family:"trebuchet ms",verdana,arial,sans-serif;color:#333;}#my-svg .cluster-label text{fill:#333;}#my-svg .cluster-label span{color:#333;}#my-svg .cluster-label span p{background-color:transparent;}#my-svg .label text,#my-svg span{fill:#333;color:#333;}#my-svg .node rect,#my-svg .node circle,#my-svg .node ellipse,#my-svg .node polygon,#my-svg .node path{fill:#ECECFF;stroke:#9370DB;stroke-width:1px;}#my-svg .rough-node .label text,#my-svg .node .label text,#my-svg .image-shape .label,#my-svg .icon-shape .label{text-anchor:middle;}#my-svg .node .katex path{fill:#000;stroke:#000;stroke-width:1px;}#my-svg .rough-node .label,#my-svg .node .label,#my-svg .image-shape .label,#my-svg .icon-shape .label{text-align:center;}#my-svg .node.clickable{cursor:pointer;}#my-svg .root .anchor path{fill:#333333!important;stroke-width:0;stroke:#333333;}#my-svg .arrowheadPath{fill:#333333;}#my-svg .edgePath .path{stroke:#333333;stroke-width:1px;}#my-svg .flowchart-link{stroke:#333333;fill:none;}#my-svg .edgeLabel{background-color:rgba(232,232,232, 0.8);text-align:center;}#my-svg .edgeLabel p{background-color:rgba(232,232,232, 0.8);}#my-svg .edgeLabel rect{opacity:0.5;background-color:rgba(232,232,232, 0.8);fill:rgba(232,232,232, 0.8);}#my-svg .labelBkg{background-color:rgba(232, 232, 232, 0.5);}#my-svg .cluster rect{fill:#ffffde;stroke:#aaaa33;stroke-width:1px;}#my-svg .cluster text{fill:#333;}#my-svg .cluster span{color:#333;}#my-svg div.mermaidTooltip{position:absolute;text-align:center;max-width:200px;padding:2px;font-family:"trebuchet ms",verdana,arial,sans-serif;font-size:12px;background:hsl(80, 100%, 96.2745098039%);border:1px solid #aaaa33;border-radius:2px;pointer-events:none;z-index:100;}#my-svg .flowchartTitleText{text-anchor:middle;font-size:18px;fill:#333;}#my-svg rect.text{fill:none;stroke-width:0;}#my-svg .icon-shape,#my-svg .image-shape{background-color:rgba(232,232,232, 0.8);text-align:center;}#my-svg .icon-shape p,#my-svg .image-shape p{background-color:rgba(232,232,232, 0.8);padding:2px;}#my-svg .icon-shape .label rect,#my-svg .image-shape .label rect{opacity:0.5;background-color:rgba(232,232,232, 0.8);fill:rgba(232,232,232, 0.8);}#my-svg .label-icon{display:inline-block;height:1em;overflow:visible;vertical-align:-0.125em;}#my-svg .node .label-icon path{fill:currentColor;stroke:revert;stroke-width:revert;}#my-svg .node .neo-node{stroke:#9370DB;}#my-svg [data-look="neo"].node rect,#my-svg [data-look="neo"].cluster rect,#my-svg [data-look="neo"].node polygon{stroke:#9370DB;filter:drop-shadow(1px 2px 2px rgba(185, 185, 185, 1));}#my-svg [data-look="neo"].swimlane.cluster rect{filter:none;}#my-svg [data-look="neo"].node path{stroke:#9370DB;stroke-width:1px;}#my-svg [data-look="neo"].node .outer-path{filter:drop-shadow(1px 2px 2px rgba(185, 185, 185, 1));}#my-svg [data-look="neo"].node .neo-line path{stroke:#9370DB;filter:none;}#my-svg [data-look="neo"].node circle{stroke:#9370DB;filter:drop-shadow(1px 2px 2px rgba(185, 185, 185, 1));}#my-svg [data-look="neo"].node circle .state-start{fill:#000000;}#my-svg [data-look="neo"].icon-shape .icon{fill:#9370DB;filter:drop-shadow(1px 2px 2px rgba(185, 185, 185, 1));}#my-svg [data-look="neo"].icon-shape .icon-neo path{stroke:#9370DB;filter:drop-shadow(1px 2px 2px rgba(185, 185, 185, 1));}#my-svg :root{--mermaid-font-family:"trebuchet ms",verdana,arial,sans-serif;}</style><g><marker id="my-svg_flowchart-v2-pointEnd" class="marker flowchart-v2" viewBox="0 0 10 10" refX="5" refY="5" markerUnits="userSpaceOnUse" markerWidth="8" markerHeight="8" orient="auto"><path d="M 0 0 L 10 5 L 0 10 z" class="arrowMarkerPath" style="stroke-width: 1; stroke-dasharray: 1, 0;"/></marker><marker id="my-svg_flowchart-v2-pointStart" class="marker flowchart-v2" viewBox="0 0 10 10" refX="4.5" refY="5" markerUnits="userSpaceOnUse" markerWidth="8" markerHeight="8" orient="auto"><path d="M 0 5 L 10 10 L 10 0 z" class="arrowMarkerPath" style="stroke-width: 1; stroke-dasharray: 1, 0;"/></marker><marker id="my-svg_flowchart-v2-pointEnd-margin" class="marker flowchart-v2" viewBox="0 0 11.5 14" refX="11.5" refY="7" markerUnits="userSpaceOnUse" markerWidth="10.5" markerHeight="14" orient="auto"><path d="M 0 0 L 11.5 7 L 0 14 z" class="arrowMarkerPath" style="stroke-width: 0; stroke-dasharray: 1, 0;"/></marker><marker id="my-svg_flowchart-v2-pointStart-margin" class="marker flowchart-v2" viewBox="0 0 11.5 14" refX="1" refY="7" markerUnits="userSpaceOnUse" markerWidth="11.5" markerHeight="14" orient="auto"><polygon points="0,7 11.5,14 11.5,0" class="arrowMarkerPath" style="stroke-width: 0; stroke-dasharray: 1, 0;"/></marker><marker id="my-svg_flowchart-v2-circleEnd" class="marker flowchart-v2" viewBox="0 0 10 10" refX="11" refY="5" markerUnits="userSpaceOnUse" markerWidth="11" markerHeight="11" orient="auto"><circle cx="5" cy="5" r="5" class="arrowMarkerPath" style="stroke-width: 1; stroke-dasharray: 1, 0;"/></marker><marker id="my-svg_flowchart-v2-circleStart" class="marker flowchart-v2" viewBox="0 0 10 10" refX="-1" refY="5" markerUnits="userSpaceOnUse" markerWidth="11" markerHeight="11" orient="auto"><circle cx="5" cy="5" r="5" class="arrowMarkerPath" style="stroke-width: 1; stroke-dasharray: 1, 0;"/></marker><marker id="my-svg_flowchart-v2-circleEnd-margin" class="marker flowchart-v2" viewBox="0 0 10 10" refY="5" refX="12.25" markerUnits="userSpaceOnUse" markerWidth="14" markerHeight="14" orient="auto"><circle cx="5" cy="5" r="5" class="arrowMarkerPath" style="stroke-width: 0; stroke-dasharray: 1, 0;"/></marker><marker id="my-svg_flowchart-v2-circleStart-margin" class="marker flowchart-v2" viewBox="0 0 10 10" refX="-2" refY="5" markerUnits="userSpaceOnUse" markerWidth="14" markerHeight="14" orient="auto"><circle cx="5" cy="5" r="5" class="arrowMarkerPath" style="stroke-width: 0; stroke-dasharray: 1, 0;"/></marker><marker id="my-svg_flowchart-v2-crossEnd" class="marker cross flowchart-v2" viewBox="0 0 11 11" refX="12" refY="5.2" markerUnits="userSpaceOnUse" markerWidth="11" markerHeight="11" orient="auto"><path d="M 1,1 l 9,9 M 10,1 l -9,9" class="arrowMarkerPath" style="stroke-width: 2; stroke-dasharray: 1, 0;"/></marker><marker id="my-svg_flowchart-v2-crossStart" class="marker cross flowchart-v2" viewBox="0 0 11 11" refX="-1" refY="5.2" markerUnits="userSpaceOnUse" markerWidth="11" markerHeight="11" orient="auto"><path d="M 1,1 l 9,9 M 10,1 l -9,9" class="arrowMarkerPath" style="stroke-width: 2; stroke-dasharray: 1, 0;"/></marker><marker id="my-svg_flowchart-v2-crossEnd-margin" class="marker cross flowchart-v2" viewBox="0 0 15 15" refX="17.7" refY="7.5" markerUnits="userSpaceOnUse" markerWidth="12" markerHeight="12" orient="auto"><path d="M 1,1 L 14,14 M 1,14 L 14,1" class="arrowMarkerPath" style="stroke-width: 2.5;"/></marker><marker id="my-svg_flowchart-v2-crossStart-margin" class="marker cross flowchart-v2" viewBox="0 0 15 15" refX="-3.5" refY="7.5" markerUnits="userSpaceOnUse" markerWidth="12" markerHeight="12" orient="auto"><path d="M 1,1 L 14,14 M 1,14 L 14,1" class="arrowMarkerPath" style="stroke-width: 2.5; stroke-dasharray: 1, 0;"/></marker><g class="root"><g class="clusters"><g class="cluster" id="my-svg-VM" data-look="classic"><rect style="" x="241.36217880249023" y="269.8888244628906" width="978.4637413024902" height="707.5459213256836"/><g class="cluster-label" transform="translate(632.9612369537354, 269.8888244628906)"><foreignObject width="195.265625" height="24"><div xmlns="http://www.w3.org/1999/xhtml" style="display: table-cell; white-space: nowrap; line-height: 1.5;"><span class="nodeLabel"><p>University VM  10.93.26.202</p></span></div></foreignObject></g></g><g class="cluster" id="my-svg-Internet" data-look="classic"><rect style="" x="1239.8259201049805" y="572.2678375244141" width="580.515625" height="177"/><g class="cluster-label" transform="translate(1431.2868576049805, 572.2678375244141)"><foreignObject width="197.59375" height="24"><div xmlns="http://www.w3.org/1999/xhtml" style="display: table-cell; white-space: nowrap; line-height: 1.5;"><span class="nodeLabel"><p>Internet (External Services)</p></span></div></foreignObject></g></g><g class="cluster" id="my-svg-Docker" data-look="classic"><rect style="" x="261.36217880249023" y="294.8888244628906" width="938.4637413024902" height="657.5459213256836"/><g class="cluster-label" transform="translate(687.5784244537354, 294.8888244628906)"><foreignObject width="86.03125" height="24"><div xmlns="http://www.w3.org/1999/xhtml" style="display: table-cell; white-space: nowrap; line-height: 1.5;"><span class="nodeLabel"><p>Docker Host</p></span></div></foreignObject></g></g><g class="cluster" id="my-svg-DBContainer" data-look="classic"><rect style="" x="270.38561630249023" y="597.2678375244141" width="236.09375" height="330.16690826416016"/><g class="cluster-label" transform="translate(274.38561630249023, 597.2678375244141)"><foreignObject width="228.09375" height="24"><div xmlns="http://www.w3.org/1999/xhtml" style="display: table-cell; white-space: nowrap; line-height: 1.5;"><span class="nodeLabel"><p>db container  postgres:16-alpine</p></span></div></foreignObject></g></g><g class="cluster" id="my-svg-AppContainer" data-look="classic"><rect style="" x="348.43249130249023" y="319.8888244628906" width="831.3934288024902" height="154.37901306152344"/><g class="cluster-label" transform="translate(651.5354557037354, 319.8888244628906)"><foreignObject width="225.1875" height="24"><div xmlns="http://www.w3.org/1999/xhtml" style="display: table-cell; white-space: nowrap; line-height: 1.5;"><span class="nodeLabel"><p>app container  python:3.11-slim</p></span></div></foreignObject></g></g></g><g class="edgePaths"><path d="M498.248,432.341L479.945,439.329C461.643,446.316,425.038,460.292,406.735,475.447C388.432,490.601,388.432,506.935,388.432,523.268C388.432,539.601,388.432,555.935,388.432,568.268C388.432,580.601,388.432,588.935,388.432,596.627C388.432,604.319,388.432,611.369,388.432,614.895L388.432,618.42" id="my-svg-L_Uvicorn_PG_0" class="edge-thickness-normal edge-pattern-solid edge-thickness-normal edge-pattern-solid flowchart-link" style=";" data-edge="true" data-et="edge" data-id="L_Uvicorn_PG_0" data-points="W3sieCI6NDk4LjI0Nzc5NTEwNDk4MDQ3LCJ5Ijo0MzIuMzQwNzgxMzc1NTAzOH0seyJ4IjozODguNDMyNDkxMzAyNDkwMjMsInkiOjQ3NC4yNjc4Mzc1MjQ0MTQwNn0seyJ4IjozODguNDMyNDkxMzAyNDkwMjMsInkiOjUyMy4yNjc4Mzc1MjQ0MTQxfSx7IngiOjM4OC40MzI0OTEzMDI0OTAyMywieSI6NTcyLjI2NzgzNzUyNDQxNDF9LHsieCI6Mzg4LjQzMjQ5MTMwMjQ5MDIzLCJ5Ijo1OTcuMjY3ODM3NTI0NDE0MX0seyJ4IjozODguNDMyNDkxMzAyNDkwMjMsInkiOjYyMi40MTk5NTYyMDcyNzU0fV0=" data-look="classic" marker-end="url(#my-svg_flowchart-v2-pointEnd)"/><path d="M388.432,724.116L388.432,728.308C388.432,732.5,388.432,740.884,388.432,749.242C388.432,757.601,388.432,765.935,388.432,774.268C388.432,782.601,388.432,790.935,388.432,795.101L388.432,799.268" id="my-svg-L_PG_PGVol_0" class="edge-thickness-normal edge-pattern-solid edge-thickness-normal edge-pattern-solid flowchart-link" style=";" data-edge="true" data-et="edge" data-id="L_PG_PGVol_0" data-points="W3sieCI6Mzg4LjQzMjQ5MTMwMjQ5MDIzLCJ5Ijo3MjQuMTE1NzE4ODQxNTUyN30seyJ4IjozODguNDMyNDkxMzAyNDkwMjMsInkiOjc0OS4yNjc4Mzc1MjQ0MTQxfSx7IngiOjM4OC40MzI0OTEzMDI0OTAyMywieSI6Nzc0LjI2NzgzNzUyNDQxNDF9LHsieCI6Mzg4LjQzMjQ5MTMwMjQ5MDIzLCJ5Ijo3OTkuMjY3ODM3NTI0NDE0MX1d" data-look="classic"/><path d="M590.607,109.444L590.607,128.018C590.607,146.593,590.607,183.741,590.607,210.481C590.607,237.222,590.607,253.555,590.607,265.889C590.607,278.222,590.607,286.555,590.607,294.222C590.607,301.889,590.607,308.889,590.607,312.389L590.607,315.889" id="my-svg-L_User_AppContainer_0" class="edge-thickness-normal edge-pattern-solid edge-thickness-normal edge-pattern-solid flowchart-link" style=";" data-edge="true" data-et="edge" data-id="L_User_AppContainer_0" data-points="W3sieCI6NTkxLjEwNzE3MDEwNDk4MDUsInkiOjEwOS45NDQ0MTIyMzE0NDUyfSx7IngiOjU5MC42MDcxNzAxMDQ5ODA1LCJ5IjoyMjAuODg4ODI0NDYyODkwNjJ9LHsieCI6NTkwLjYwNzE3MDEwNDk4MDUsInkiOjI2OS44ODg4MjQ0NjI4OTA2fSx7IngiOjU5MC42MDcxNzAxMDQ5ODA1LCJ5IjoyOTQuODg4ODI0NDYyODkwNn0seyJ4Ijo1OTAuNjA3MTcwMTA0OTgwNSwieSI6MzE5Ljg4ODgyNDQ2Mjg5MDZ9LHsieCI6NTkwLjYwNzE3MDEwNDk4MDUsInkiOjM1OC4wNzgzMzA5OTM2NTIzNH1d" data-look="classic" marker-end="url(#my-svg_flowchart-v2-pointEnd)"/><path d="M595.448,474.268L595.448,482.435C595.448,490.601,595.448,506.935,595.448,523.268C595.448,539.601,595.448,555.935,595.448,568.268C595.448,580.601,595.448,588.935,708.014,603.671C820.58,618.408,1045.712,639.547,1158.278,650.117L1270.843,660.687" id="my-svg-L_AppContainer_LLM_0" class="edge-thickness-normal edge-pattern-solid edge-thickness-normal edge-pattern-solid flowchart-link" style=";" data-edge="true" data-et="edge" data-id="L_AppContainer_LLM_0" data-points="W3sieCI6NTkzLjA1MzA1ODI4NTc0ODIsInkiOjQzNi4wNzgzMzA5OTM2NTIzNH0seyJ4Ijo1OTUuNDQ4MTE2MzAyNDkwMiwieSI6NDc0LjI2NzgzNzUyNDQxNDA2fSx7IngiOjU5NS40NDgxMTYzMDI0OTAyLCJ5Ijo1MjMuMjY3ODM3NTI0NDE0MX0seyJ4Ijo1OTUuNDQ4MTE2MzAyNDkwMiwieSI6NTcyLjI2NzgzNzUyNDQxNDF9LHsieCI6NTk1LjQ0ODExNjMwMjQ5MDIsInkiOjU5Ny4yNjc4Mzc1MjQ0MTQxfSx7IngiOjEyNzQuODI1OTIwMTA0OTgwNSwieSI6NjYxLjA2MDkzMDAwNDExNDd9XQ==" data-look="classic" marker-end="url(#my-svg_flowchart-v2-pointEnd)"/><path d="M945.217,474.268L945.217,482.435C945.217,490.601,945.217,506.935,945.217,523.268C945.217,539.601,945.217,555.935,945.217,568.268C945.217,580.601,945.217,588.935,1051.155,603.983C1157.093,619.032,1368.97,640.796,1474.908,651.678L1580.847,662.561" id="my-svg-L_AppContainer_FNS_0" class="edge-thickness-normal edge-pattern-solid edge-thickness-normal edge-pattern-solid flowchart-link" style=";" data-edge="true" data-et="edge" data-id="L_AppContainer_FNS_0" data-points="W3sieCI6NjgyLjk2NjU0NTEwNDk4MDUsInkiOjQxNy4xODI2MzQ3MjE0OTI1fSx7IngiOjk0NS4yMTY1NDUxMDQ5ODA1LCJ5Ijo0NzQuMjY3ODM3NTI0NDE0MDZ9LHsieCI6OTQ1LjIxNjU0NTEwNDk4MDUsInkiOjUyMy4yNjc4Mzc1MjQ0MTQxfSx7IngiOjk0NS4yMTY1NDUxMDQ5ODA1LCJ5Ijo1NzIuMjY3ODM3NTI0NDE0MX0seyJ4Ijo5NDUuMjE2NTQ1MTA0OTgwNSwieSI6NTk3LjI2NzgzNzUyNDQxNDF9LHsieCI6MTU4NC44MjU5MjAxMDQ5ODA1LCJ5Ijo2NjIuOTY5MjQwODU5MDQ5N31d" data-look="classic" marker-end="url(#my-svg_flowchart-v2-pointEnd)"/></g><g class="edgeLabels"><g class="edgeLabel" transform="translate(388.43249130249023, 523.2678375244141)"><g class="label" data-id="L_Uvicorn_PG_0" transform="translate(-87.015625, -24)"><foreignObject width="174.03125" height="48"><div xmlns="http://www.w3.org/1999/xhtml" class="labelBkg" style="display: table-cell; white-space: nowrap; line-height: 1.5; max-width: 200px; text-align: center;"><span class="edgeLabel"><p>psycopg2 SQL<br />internal Docker network</p></span></div></foreignObject></g></g><g class="edgeLabel"><g class="label" data-id="L_PG_PGVol_0" transform="translate(0, 0)"><foreignObject width="0" height="0"><div xmlns="http://www.w3.org/1999/xhtml" class="labelBkg" style="display: table-cell; white-space: nowrap; line-height: 1.5; max-width: 200px; text-align: center;"><span class="edgeLabel"></span></div></foreignObject></g></g><g class="edgeLabel" transform="translate(590.60717, 214.66662)"><g class="label" data-id="L_User_AppContainer_0" transform="translate(-75.9609375, -24)"><foreignObject width="151.921875" height="48"><div xmlns="http://www.w3.org/1999/xhtml" class="labelBkg" style="display: table-cell; white-space: nowrap; line-height: 1.5; max-width: 200px; text-align: center;"><span class="edgeLabel"><p>HTTPS :8000<br />campus network only</p></span></div></foreignObject></g></g><g class="edgeLabel" transform="translate(873.90636, 623.41487)"><g class="label" data-id="L_AppContainer_LLM_0" transform="translate(-100, -24)"><foreignObject width="200" height="48"><div xmlns="http://www.w3.org/1999/xhtml" class="labelBkg" style="display: table; white-space: break-spaces; line-height: 1.5; max-width: 200px; text-align: center; width: 200px;"><span class="edgeLabel"><p>HTTPS (if LLM_PROVIDER != mock)</p></span></div></foreignObject></g></g><g class="edgeLabel" transform="translate(1203.84315, 623.83426)"><g class="label" data-id="L_AppContainer_FNS_0" transform="translate(-67.3984375, -12)"><foreignObject width="134.796875" height="24"><div xmlns="http://www.w3.org/1999/xhtml" class="labelBkg" style="display: table-cell; white-space: nowrap; line-height: 1.5; max-width: 200px; text-align: center;"><span class="edgeLabel"><p>HTTPS (QR lookup)</p></span></div></foreignObject></g></g></g><g class="nodes"><g class="root" transform="translate(0, 0)"><g class="clusters"><g class="cluster" id="my-svg-DevLaptop" data-look="classic"><rect style="" x="8" y="8" width="476.40625" height="163.88883209228516"/><g class="cluster-label" transform="translate(142.4140625, 8)"><foreignObject width="207.578125" height="24"><div xmlns="http://www.w3.org/1999/xhtml" style="display: table-cell; white-space: nowrap; line-height: 1.5;"><span class="nodeLabel"><p>Developer Laptop (local dev)</p></span></div></foreignObject></g></g></g><g class="edgePaths"><path d="M232,89.944L242.615,89.944C253.229,89.944,274.458,89.944,295.021,89.944C315.583,89.944,335.479,89.944,345.427,89.944L355.375,89.944" id="my-svg-L_DevUvicorn_SQLite_0" class="edge-thickness-normal edge-pattern-solid edge-thickness-normal edge-pattern-solid flowchart-link" style=";" data-edge="true" data-et="edge" data-id="L_DevUvicorn_SQLite_0" data-points="W3sieCI6MjMyLCJ5Ijo4OS45NDQ0MTYwNDYxNDI1OH0seyJ4IjoyOTUuNjg3NSwieSI6ODkuOTQ0NDE2MDQ2MTQyNTh9LHsieCI6MzU5LjM3NSwieSI6ODkuOTQ0NDE2MDQ2MTQyNTh9XQ==" data-look="classic" marker-end="url(#my-svg_flowchart-v2-pointEnd)"/></g><g class="edgeLabels"><g class="edgeLabel" transform="translate(295.6875, 89.94441604614258)"><g class="label" data-id="L_DevUvicorn_SQLite_0" transform="translate(-26.1875, -12)"><foreignObject width="52.375" height="24"><div xmlns="http://www.w3.org/1999/xhtml" class="labelBkg" style="display: table-cell; white-space: nowrap; line-height: 1.5; max-width: 200px; text-align: center;"><span class="edgeLabel"><p>file I/O</p></span></div></foreignObject></g></g></g><g class="nodes"><g class="node default" id="my-svg-flowchart-DevUvicorn-8" data-look="classic" transform="translate(138.75, 89.94441604614258)"><rect class="basic label-container" style="" x="-93.25" y="-39" width="186.5" height="78"/><g class="label" style="" transform="translate(-63.25, -24)"><rect/><foreignObject width="126.5" height="48"><div xmlns="http://www.w3.org/1999/xhtml" style="display: table-cell; white-space: nowrap; line-height: 1.5; max-width: 200px; text-align: center;"><span class="nodeLabel"><p>Uvicorn / FastAPI<br />(uvicorn --reload)</p></span></div></foreignObject></g></g><g class="node default" id="my-svg-flowchart-SQLite-9" data-look="classic" transform="translate(403.140625, 89.94441604614258)"><path d="M0,10.296279958829583 a43.765625,10.296279958829583 0,0,0 87.53125,0 a43.765625,10.296279958829583 0,0,0 -87.53125,0 l0,73.29627995882959 a43.765625,10.296279958829583 0,0,0 87.53125,0 l0,-73.29627995882959" class="basic label-container outer-path" style="" transform="translate(-43.765625, -46.94441993824438)"/><g class="label" style="" transform="translate(-36.265625, -14)"><rect/><foreignObject width="72.53125" height="48"><div xmlns="http://www.w3.org/1999/xhtml" style="display: table-cell; white-space: nowrap; line-height: 1.5; max-width: 200px; text-align: center;"><span class="nodeLabel"><p>SQLite<br />fitfood.db</p></span></div></foreignObject></g></g></g></g><g class="node default" id="my-svg-flowchart-User-0" data-look="classic" transform="translate(590.6071701049805, 89.94441223144531)"><g class="basic label-container outer-path"><path d="M-36.7109375 -19.5 C-15.490084162542185 -19.5, 5.730769174915629 -19.5, 36.7109375 -19.5 C36.7109375 -19.5, 36.7109375 -19.5, 36.7109375 -19.5 C37.14847219343366 -19.4859691139912, 37.586006886867324 -19.4719382279824, 37.9603067896239 -19.45993515863156 C38.33961607649817 -19.423343647912958, 38.71892536337243 -19.386752137194357, 39.204542152847864 -19.3399052695533 C39.468463468891954 -19.297236517915664, 39.732384784936045 -19.254567766278033, 40.43853075967676 -19.140403561325776 C40.76678149669243 -19.06548247263819, 41.0950322337081 -18.990561383950606, 41.65720188623539 -18.862249829261074 C41.9211848571384 -18.783901069171954, 42.1851678280414 -18.705552309082833, 42.855547751460605 -18.50658706670804 C43.26504295726454 -18.355889045640005, 43.674538163068476 -18.20519102457197, 44.0286440951478 -18.074876768247425 C44.281782940759435 -17.96281971039221, 44.534921786371065 -17.850762652536996, 45.17167041279238 -17.568892924097174 C45.47124249512824 -17.412606360627635, 45.770814577464094 -17.256319797158092, 46.27992976407678 -16.990714730406097 C46.681126076280286 -16.747507168257105, 47.08232238848379 -16.50429960610811, 47.3488680736057 -16.342718045390892 C47.59156689811269 -16.1734218516776, 47.834265722619676 -16.004125657964305, 48.37409284457871 -15.627565626425154 C48.74061224803649 -15.33527615565852, 49.10713165149427 -15.042986684891886, 49.351391208501866 -14.848196188198123 C49.71878452103654 -14.51453930244851, 50.086177833571206 -14.180882416698896, 50.27674723676799 -14.007812326905688 C50.502352476465276 -13.774856394383582, 50.72795771616257 -13.541900461861477, 51.14635844296865 -13.10986736009568 C51.362867737363146 -12.855543223172054, 51.57937703175764 -12.601219086248427, 51.95665140812658 -12.158051136245305 C52.22910639506594 -11.79298627490649, 52.501561382005306 -11.427921413567674, 52.704296464640635 -11.156274872382312 C52.9387850968647 -10.7960373642719, 53.17327372908877 -10.43579985616149, 53.38622137860425 -10.108655082055241 C53.514570811591064 -9.880757666997734, 53.64292024457788 -9.652860251940227, 53.999623974273504 -9.019496659696287 C54.197687162815505 -8.608214210815479, 54.395750351357506 -8.19693176193467, 54.54198364880834 -7.893275190886684 C54.6939261599882 -7.517974250663823, 54.84586867116806 -7.142673310440961, 55.011071729970325 -6.734618561215508 C55.165746876067814 -6.2687616653076565, 55.32042202216531 -5.802904769399804, 55.40496063421488 -5.548287939305138 C55.49090097709538 -5.2205601651215945, 55.57684131997587 -4.89283239093805, 55.72203178754556 -4.339158212148133 C55.801549526316506 -3.9308514296393464, 55.88106726508746 -3.5225446471305597, 55.960982276581774 -3.1121979531509023 C55.994044809084365 -2.855771479996349, 56.02710734158695 -2.599345006841796, 56.12083020250937 -1.872449005199798 C56.14195525103745 -1.5434093225426349, 56.163080299565536 -1.214369639885472, 56.20091871591342 -0.6250057626472757 C56.20091871591342 -0.3029762523264156, 56.20091871591342 0.01905325799444446, 56.20091871591342 0.625005762647271 C56.1770907877417 0.9961449774792281, 56.15326285956998 1.3672841923111854, 56.12083020250937 1.8724490051997846 C56.07286182675684 2.244482255109163, 56.02489345100432 2.616515505018542, 55.960982276581774 3.1121979531508885 C55.903133971262626 3.409236774721056, 55.84528566594348 3.7062755962912237, 55.72203178754556 4.339158212148129 C55.64364857439563 4.638067375388305, 55.56526536124569 4.936976538628481, 55.40496063421489 5.548287939305125 C55.25794144933526 5.99108629983652, 55.11092226445564 6.433884660367916, 55.011071729970325 6.734618561215495 C54.85603217820207 7.117569251568897, 54.70099262643382 7.500519941922299, 54.54198364880834 7.893275190886679 C54.340210448314295 8.312261558967444, 54.13843724782026 8.731247927048209, 53.999623974273504 9.019496659696284 C53.79366809373444 9.385192180887772, 53.58771221319537 9.750887702079261, 53.38622137860425 10.108655082055236 C53.11423436839125 10.52650016848103, 52.842247358178255 10.944345254906825, 52.70429646464064 11.156274872382301 C52.54874198543635 11.364703703211468, 52.39318750623205 11.573132534040637, 51.95665140812658 12.158051136245302 C51.73779951951306 12.415127017635983, 51.51894763089955 12.672202899026665, 51.14635844296866 13.10986736009567 C50.91240915475378 13.351439207771307, 50.6784598665389 13.593011055446945, 50.27674723676799 14.007812326905684 C49.963277209507666 14.292497511701086, 49.649807182247336 14.577182696496488, 49.35139120850189 14.848196188198111 C48.97832042355417 15.145710211363385, 48.60524963860645 15.443224234528659, 48.37409284457871 15.627565626425152 C47.98232344831005 15.900846997838347, 47.590554052041384 16.17412836925154, 47.34886807360571 16.34271804539089 C47.04063322106108 16.529571824392498, 46.73239836851644 16.716425603394107, 46.27992976407678 16.990714730406093 C45.93227780415727 17.172084535214395, 45.58462584423776 17.353454340022694, 45.17167041279239 17.56889292409717 C44.80472578708676 17.731328424871474, 44.43778116138113 17.893763925645782, 44.028644095147804 18.07487676824742 C43.756375252021904 18.175074219343347, 43.48410640889601 18.275271670439274, 42.85554775146062 18.506587066708033 C42.391741363014695 18.64424236822937, 41.927934974568764 18.78189766975071, 41.65720188623541 18.86224982926107 C41.344768329188604 18.933560749837508, 41.032334772141795 19.004871670413944, 40.438530759676766 19.140403561325773 C40.00175310593171 19.211018385121978, 39.564975452186665 19.281633208918187, 39.20454215284788 19.3399052695533 C38.7468445071905 19.38405881096791, 38.28914686153313 19.428212352382523, 37.9603067896239 19.45993515863156 C37.69013818755603 19.468598939848594, 37.41996958548816 19.477262721065628, 36.71093750000001 19.5 C36.71093750000001 19.5, 36.7109375 19.5, 36.7109375 19.5 C14.128928958131258 19.5, -8.453079583737484 19.5, -36.71093749999999 19.5 C-37.018341611692975 19.49014214846381, -37.325745723385964 19.48028429692762, -37.96030678962389 19.45993515863156 C-38.38962394939709 19.418519448557664, -38.81894110917029 19.377103738483772, -39.20454215284787 19.3399052695533 C-39.63375162620805 19.2705140104696, -40.06296109956824 19.201122751385906, -40.43853075967676 19.140403561325773 C-40.70630829249922 19.07928508687075, -40.97408582532169 19.01816661241573, -41.657201886235384 18.862249829261074 C-42.080901123945225 18.736498119551477, -42.50460036165506 18.610746409841884, -42.85554775146059 18.506587066708043 C-43.32128340155627 18.335192042259678, -43.78701905165195 18.163797017811312, -44.0286440951478 18.074876768247425 C-44.26972193410292 17.968158760261996, -44.51079977305804 17.86144075227657, -45.17167041279238 17.568892924097174 C-45.53375308116193 17.379994627933794, -45.89583574953149 17.191096331770417, -46.27992976407678 16.990714730406097 C-46.62004622797181 16.78453413124673, -46.96016269186685 16.578353532087363, -47.348868073605686 16.3427180453909 C-47.61856760740953 16.15458732571399, -47.88826714121337 15.96645660603708, -48.37409284457871 15.627565626425156 C-48.62035076434007 15.431181488613937, -48.866608684101415 15.23479735080272, -49.351391208501866 14.848196188198125 C-49.60956879400967 14.613726136044528, -49.86774637951746 14.379256083890931, -50.276747236767974 14.007812326905697 C-50.58656153420822 13.687903628571771, -50.89637583164848 13.367994930237844, -51.146358442968655 13.109867360095677 C-51.44715028551744 12.756540146297167, -51.74794212806623 12.40321293249866, -51.956651408126575 12.158051136245307 C-52.13822600213355 11.91475772206177, -52.31980059614053 11.671464307878233, -52.704296464640635 11.156274872382316 C-52.88127545501505 10.884387617654102, -53.058254445389466 10.61250036292589, -53.38622137860425 10.108655082055249 C-53.53112874018687 9.8513573881038, -53.6760361017695 9.594059694152351, -53.999623974273504 9.019496659696289 C-54.15455789903659 8.697773049870804, -54.30949182379968 8.37604944004532, -54.54198364880834 7.893275190886686 C-54.69655739420653 7.5114750512730994, -54.85113113960472 7.129674911659512, -55.011071729970325 6.73461856121551 C-55.12830915444839 6.38151811793449, -55.245546578926444 6.028417674653471, -55.40496063421488 5.5482879393051325 C-55.531203473895566 5.066869277609862, -55.65744631357625 4.585450615914591, -55.72203178754556 4.339158212148136 C-55.7713083265396 4.0861335990139755, -55.820584865533625 3.833108985879816, -55.960982276581774 3.112197953150904 C-56.00739515964604 2.752228797364925, -56.053808042710294 2.3922596415789457, -56.12083020250937 1.872449005199809 C-56.14845165167007 1.4422226388893586, -56.17607310083078 1.0119962725789082, -56.20091871591342 0.6250057626472781 C-56.20091871591342 0.12613907702670302, -56.20091871591342 -0.3727276085938721, -56.20091871591342 -0.6250057626472687 C-56.1738779919754 -1.046186864861387, -56.14683726803738 -1.4673679670755053, -56.12083020250937 -1.8724490051997822 C-56.06720224228345 -2.2883768746734003, -56.01357428205754 -2.7043047441470183, -55.960982276581774 -3.112197953150895 C-55.91156218493683 -3.3659596788076476, -55.86214209329187 -3.6197214044644, -55.72203178754556 -4.339158212148126 C-55.636216189676624 -4.666410279537764, -55.550400591807694 -4.993662346927403, -55.40496063421489 -5.548287939305123 C-55.275803370398116 -5.937289039505852, -55.14664610658134 -6.326290139706581, -55.01107172997033 -6.734618561215485 C-54.90569862071903 -6.994892178316685, -54.80032551146772 -7.255165795417886, -54.54198364880834 -7.893275190886676 C-54.43107914597801 -8.12357076399007, -54.32017464314769 -8.353866337093464, -53.999623974273504 -9.019496659696282 C-53.766408129598965 -9.433595007580998, -53.533192284924425 -9.847693355465713, -53.38622137860425 -10.108655082055243 C-53.23419716012488 -10.342205105858142, -53.08217294164552 -10.575755129661038, -52.70429646464064 -11.156274872382308 C-52.45929322301051 -11.484556895912197, -52.21428998138039 -11.812838919442084, -51.95665140812659 -12.158051136245302 C-51.67746387471717 -12.486000699208695, -51.39827634130775 -12.813950262172087, -51.14635844296866 -13.10986736009567 C-50.84199672937445 -13.424145817943105, -50.53763501578024 -13.738424275790539, -50.276747236767996 -14.007812326905677 C-49.97024058630348 -14.286173557135974, -49.66373393583897 -14.564534787366272, -49.35139120850189 -14.848196188198107 C-49.13277784607352 -15.022534527188835, -48.91416448364515 -15.196872866179564, -48.37409284457872 -15.627565626425149 C-47.98106608849739 -15.90172407761343, -47.58803933241606 -16.17588252880171, -47.348868073605715 -16.342718045390885 C-46.99915964721862 -16.55471334858157, -46.64945122083152 -16.76670865177225, -46.27992976407679 -16.99071473040609 C-45.96356166088203 -17.155763767199357, -45.64719355768726 -17.320812803992624, -45.17167041279239 -17.56889292409717 C-44.941608825619305 -17.670734364204186, -44.71154723844622 -17.772575804311202, -44.028644095147804 -18.07487676824742 C-43.63499231735651 -18.21974426135176, -43.24134053956522 -18.3646117544561, -42.85554775146062 -18.506587066708033 C-42.406365735611196 -18.63990193120763, -41.957183719761765 -18.77321679570722, -41.65720188623541 -18.862249829261067 C-41.21603666112307 -18.96294291302082, -40.77487143601073 -19.063635996780576, -40.438530759676766 -19.140403561325773 C-40.13576679163196 -19.18935209170962, -39.83300282358715 -19.238300622093465, -39.20454215284788 -19.3399052695533 C-38.8695811279768 -19.372218556773042, -38.53462010310572 -19.404531843992782, -37.9603067896239 -19.45993515863156 C-37.65261754183375 -19.4698021539274, -37.3449282940436 -19.47966914922324, -36.71093750000001 -19.5 C-36.71093750000001 -19.5, -36.71093750000001 -19.5, -36.7109375 -19.5" stroke="none" stroke-width="0" fill="#ECECFF" style=""/><path d="M-36.7109375 -19.5 C-16.878036874379745 -19.5, 2.9548637512405094 -19.5, 36.7109375 -19.5 M-36.7109375 -19.5 C-12.82094585750998 -19.5, 11.069045784980041 -19.5, 36.7109375 -19.5 M36.7109375 -19.5 C36.7109375 -19.5, 36.7109375 -19.5, 36.7109375 -19.5 M36.7109375 -19.5 C36.7109375 -19.5, 36.7109375 -19.5, 36.7109375 -19.5 M36.7109375 -19.5 C37.178164890378 -19.485016926993524, 37.645392280756006 -19.470033853987047, 37.9603067896239 -19.45993515863156 M36.7109375 -19.5 C36.99221998337162 -19.490979818241414, 37.27350246674324 -19.481959636482824, 37.9603067896239 -19.45993515863156 M37.9603067896239 -19.45993515863156 C38.42552092510304 -19.41505651048374, 38.89073506058218 -19.370177862335925, 39.204542152847864 -19.3399052695533 M37.9603067896239 -19.45993515863156 C38.31458480087317 -19.42575838496799, 38.66886281212245 -19.391581611304417, 39.204542152847864 -19.3399052695533 M39.204542152847864 -19.3399052695533 C39.56679457588286 -19.281339107106497, 39.92904699891786 -19.2227729446597, 40.43853075967676 -19.140403561325776 M39.204542152847864 -19.3399052695533 C39.61701725769445 -19.273219493393917, 40.029492362541035 -19.20653371723453, 40.43853075967676 -19.140403561325776 M40.43853075967676 -19.140403561325776 C40.84402830925518 -19.047851391753305, 41.24952585883361 -18.955299222180834, 41.65720188623539 -18.862249829261074 M40.43853075967676 -19.140403561325776 C40.88291399019626 -19.038975988831286, 41.32729722071576 -18.937548416336796, 41.65720188623539 -18.862249829261074 M41.65720188623539 -18.862249829261074 C41.904747873762894 -18.788779479558315, 42.1522938612904 -18.715309129855555, 42.855547751460605 -18.50658706670804 M41.65720188623539 -18.862249829261074 C41.94595666296339 -18.77654892723296, 42.23471143969139 -18.69084802520484, 42.855547751460605 -18.50658706670804 M42.855547751460605 -18.50658706670804 C43.28837176301371 -18.347303829475194, 43.72119577456681 -18.18802059224235, 44.0286440951478 -18.074876768247425 M42.855547751460605 -18.50658706670804 C43.098297224970814 -18.41725301650475, 43.34104669848102 -18.327918966301457, 44.0286440951478 -18.074876768247425 M44.0286440951478 -18.074876768247425 C44.367834385222 -17.92472728855404, 44.707024675296196 -17.774577808860652, 45.17167041279238 -17.568892924097174 M44.0286440951478 -18.074876768247425 C44.437256626992365 -17.893996121459928, 44.84586915883694 -17.71311547467243, 45.17167041279238 -17.568892924097174 M45.17167041279238 -17.568892924097174 C45.4930446201654 -17.401232205960675, 45.81441882753842 -17.233571487824175, 46.27992976407678 -16.990714730406097 M45.17167041279238 -17.568892924097174 C45.45815396111165 -17.419434640440485, 45.74463750943091 -17.269976356783793, 46.27992976407678 -16.990714730406097 M46.27992976407678 -16.990714730406097 C46.68175234925598 -16.747127517898846, 47.083574934435184 -16.5035403053916, 47.3488680736057 -16.342718045390892 M46.27992976407678 -16.990714730406097 C46.57102210978003 -16.81425283979228, 46.86211445548329 -16.63779094917847, 47.3488680736057 -16.342718045390892 M47.3488680736057 -16.342718045390892 C47.73004234766508 -16.076827372575444, 48.111216621724466 -15.810936699759996, 48.37409284457871 -15.627565626425154 M47.3488680736057 -16.342718045390892 C47.67320737083637 -16.116472992064658, 47.99754666806705 -15.890227938738425, 48.37409284457871 -15.627565626425154 M48.37409284457871 -15.627565626425154 C48.617861616016235 -15.433166518163171, 48.86163038745376 -15.238767409901188, 49.351391208501866 -14.848196188198123 M48.37409284457871 -15.627565626425154 C48.69721940491686 -15.369880793314378, 49.020345965255004 -15.112195960203602, 49.351391208501866 -14.848196188198123 M49.351391208501866 -14.848196188198123 C49.568810027740184 -14.650742169152611, 49.786228846978496 -14.4532881501071, 50.27674723676799 -14.007812326905688 M49.351391208501866 -14.848196188198123 C49.64134484227693 -14.584867969756361, 49.931298476052 -14.3215397513146, 50.27674723676799 -14.007812326905688 M50.27674723676799 -14.007812326905688 C50.46660450707305 -13.81176910774393, 50.65646177737811 -13.615725888582169, 51.14635844296865 -13.10986736009568 M50.27674723676799 -14.007812326905688 C50.596382566654704 -13.677762606249026, 50.91601789654141 -13.347712885592365, 51.14635844296865 -13.10986736009568 M51.14635844296865 -13.10986736009568 C51.34822795218736 -12.87273994786691, 51.55009746140606 -12.63561253563814, 51.95665140812658 -12.158051136245305 M51.14635844296865 -13.10986736009568 C51.350388809606905 -12.870201681785638, 51.55441917624516 -12.630536003475594, 51.95665140812658 -12.158051136245305 M51.95665140812658 -12.158051136245305 C52.12519087654682 -11.932223602823626, 52.29373034496706 -11.706396069401947, 52.704296464640635 -11.156274872382312 M51.95665140812658 -12.158051136245305 C52.2518380473855 -11.762527931694411, 52.54702468664442 -11.367004727143518, 52.704296464640635 -11.156274872382312 M52.704296464640635 -11.156274872382312 C52.86626174191486 -10.90745271272245, 53.02822701918909 -10.658630553062586, 53.38622137860425 -10.108655082055241 M52.704296464640635 -11.156274872382312 C52.85040975237299 -10.931805625513977, 52.99652304010534 -10.707336378645643, 53.38622137860425 -10.108655082055241 M53.38622137860425 -10.108655082055241 C53.569989343409205 -9.78235645201976, 53.75375730821417 -9.45605782198428, 53.999623974273504 -9.019496659696287 M53.38622137860425 -10.108655082055241 C53.612518634775455 -9.70684138864125, 53.83881589094666 -9.305027695227258, 53.999623974273504 -9.019496659696287 M53.999623974273504 -9.019496659696287 C54.12563925533753 -8.757823232271758, 54.25165453640156 -8.496149804847226, 54.54198364880834 -7.893275190886684 M53.999623974273504 -9.019496659696287 C54.153619333420686 -8.699722001454322, 54.30761469256787 -8.379947343212358, 54.54198364880834 -7.893275190886684 M54.54198364880834 -7.893275190886684 C54.70089261576627 -7.500766970204725, 54.8598015827242 -7.108258749522765, 55.011071729970325 -6.734618561215508 M54.54198364880834 -7.893275190886684 C54.695695606990846 -7.513603682357363, 54.849407565173344 -7.133932173828042, 55.011071729970325 -6.734618561215508 M55.011071729970325 -6.734618561215508 C55.14546523467929 -6.329846737729164, 55.27985873938827 -5.925074914242819, 55.40496063421488 -5.548287939305138 M55.011071729970325 -6.734618561215508 C55.13462559303543 -6.362494011298119, 55.25817945610054 -5.9903694613807295, 55.40496063421488 -5.548287939305138 M55.40496063421488 -5.548287939305138 C55.490718603905385 -5.221255633136082, 55.57647657359588 -4.894223326967026, 55.72203178754556 -4.339158212148133 M55.40496063421488 -5.548287939305138 C55.492032164941335 -5.216246455605039, 55.57910369566779 -4.88420497190494, 55.72203178754556 -4.339158212148133 M55.72203178754556 -4.339158212148133 C55.81200959967553 -3.87714116367809, 55.901987411805486 -3.415124115208047, 55.960982276581774 -3.1121979531509023 M55.72203178754556 -4.339158212148133 C55.78095922435265 -4.036578278461901, 55.83988666115974 -3.733998344775669, 55.960982276581774 -3.1121979531509023 M55.960982276581774 -3.1121979531509023 C55.99867686035636 -2.819846205032697, 56.03637144413095 -2.527494456914492, 56.12083020250937 -1.872449005199798 M55.960982276581774 -3.1121979531509023 C55.99323989216918 -2.8620142566416984, 56.02549750775658 -2.611830560132495, 56.12083020250937 -1.872449005199798 M56.12083020250937 -1.872449005199798 C56.14366465434713 -1.5167839861889074, 56.16649910618489 -1.1611189671780169, 56.20091871591342 -0.6250057626472757 M56.12083020250937 -1.872449005199798 C56.15065300426398 -1.407934795339414, 56.18047580601859 -0.9434205854790297, 56.20091871591342 -0.6250057626472757 M56.20091871591342 -0.6250057626472757 C56.20091871591342 -0.1751456385315558, 56.20091871591342 0.2747144855841641, 56.20091871591342 0.625005762647271 M56.20091871591342 -0.6250057626472757 C56.20091871591342 -0.27184067964450837, 56.20091871591342 0.08132440335825897, 56.20091871591342 0.625005762647271 M56.20091871591342 0.625005762647271 C56.17717162802728 0.9948858247781637, 56.153424540141145 1.3647658869090562, 56.12083020250937 1.8724490051997846 M56.20091871591342 0.625005762647271 C56.170710864394096 1.0955174333995215, 56.14050301287478 1.566029104151772, 56.12083020250937 1.8724490051997846 M56.12083020250937 1.8724490051997846 C56.061192400961374 2.334988017190031, 56.00155459941338 2.797527029180277, 55.960982276581774 3.1121979531508885 M56.12083020250937 1.8724490051997846 C56.06538442642335 2.3024754955160427, 56.009938650337325 2.732501985832301, 55.960982276581774 3.1121979531508885 M55.960982276581774 3.1121979531508885 C55.90204292083255 3.41483908808593, 55.84310356508332 3.7174802230209716, 55.72203178754556 4.339158212148129 M55.960982276581774 3.1121979531508885 C55.89987469794503 3.4259724543592602, 55.83876711930829 3.739746955567632, 55.72203178754556 4.339158212148129 M55.72203178754556 4.339158212148129 C55.60082035067754 4.80138995429495, 55.479608913809514 5.2636216964417715, 55.40496063421489 5.548287939305125 M55.72203178754556 4.339158212148129 C55.5988611490817 4.8088612391032255, 55.47569051061784 5.278564266058323, 55.40496063421489 5.548287939305125 M55.40496063421489 5.548287939305125 C55.32387319147875 5.79251039729688, 55.242785748742605 6.036732855288634, 55.011071729970325 6.734618561215495 M55.40496063421489 5.548287939305125 C55.26155981891591 5.980188347168507, 55.11815900361694 6.41208875503189, 55.011071729970325 6.734618561215495 M55.011071729970325 6.734618561215495 C54.834611554984086 7.170478605056898, 54.65815137999785 7.606338648898301, 54.54198364880834 7.893275190886679 M55.011071729970325 6.734618561215495 C54.831426829378294 7.178344938875691, 54.65178192878626 7.622071316535887, 54.54198364880834 7.893275190886679 M54.54198364880834 7.893275190886679 C54.39043492441794 8.207969359706595, 54.23888620002754 8.522663528526513, 53.999623974273504 9.019496659696284 M54.54198364880834 7.893275190886679 C54.341430441477456 8.309728217060465, 54.14087723414658 8.726181243234253, 53.999623974273504 9.019496659696284 M53.999623974273504 9.019496659696284 C53.85782142276029 9.271281448973383, 53.71601887124707 9.523066238250484, 53.38622137860425 10.108655082055236 M53.999623974273504 9.019496659696284 C53.788488313604546 9.39438940501801, 53.57735265293558 9.769282150339738, 53.38622137860425 10.108655082055236 M53.38622137860425 10.108655082055236 C53.231670426743555 10.346086846854764, 53.07711947488286 10.583518611654293, 52.70429646464064 11.156274872382301 M53.38622137860425 10.108655082055236 C53.165682431460695 10.447462127867043, 52.94514348431714 10.78626917367885, 52.70429646464064 11.156274872382301 M52.70429646464064 11.156274872382301 C52.54934827811291 11.363891326259273, 52.39440009158518 11.571507780136244, 51.95665140812658 12.158051136245302 M52.70429646464064 11.156274872382301 C52.503432309451625 11.425414541234602, 52.3025681542626 11.694554210086903, 51.95665140812658 12.158051136245302 M51.95665140812658 12.158051136245302 C51.679051897152114 12.484135317695566, 51.401452386177645 12.810219499145832, 51.14635844296866 13.10986736009567 M51.95665140812658 12.158051136245302 C51.667621993925756 12.497561532405161, 51.37859257972494 12.83707192856502, 51.14635844296866 13.10986736009567 M51.14635844296866 13.10986736009567 C50.94352098024847 13.31931369361966, 50.74068351752829 13.528760027143651, 50.27674723676799 14.007812326905684 M51.14635844296866 13.10986736009567 C50.89602927204124 13.368352781485392, 50.64570010111381 13.626838202875113, 50.27674723676799 14.007812326905684 M50.27674723676799 14.007812326905684 C49.97109270767197 14.285399683055013, 49.66543817857595 14.562987039204343, 49.35139120850189 14.848196188198111 M50.27674723676799 14.007812326905684 C49.934469142958356 14.318660235521497, 49.59219104914872 14.629508144137311, 49.35139120850189 14.848196188198111 M49.35139120850189 14.848196188198111 C49.00216051377406 15.126698373824466, 48.652929819046236 15.405200559450822, 48.37409284457871 15.627565626425152 M49.35139120850189 14.848196188198111 C48.967604779633795 15.154255652234623, 48.5838183507657 15.460315116271136, 48.37409284457871 15.627565626425152 M48.37409284457871 15.627565626425152 C47.977708612612744 15.904066107447766, 47.581324380646784 16.18056658847038, 47.34886807360571 16.34271804539089 M48.37409284457871 15.627565626425152 C48.14127218380865 15.78997124073438, 47.9084515230386 15.952376855043607, 47.34886807360571 16.34271804539089 M47.34886807360571 16.34271804539089 C47.13312387694668 16.473503445259222, 46.917379680287645 16.604288845127556, 46.27992976407678 16.990714730406093 M47.34886807360571 16.34271804539089 C46.97180067735938 16.571298516889392, 46.59473328111306 16.799878988387896, 46.27992976407678 16.990714730406093 M46.27992976407678 16.990714730406093 C45.92847242977408 17.174069796592647, 45.577015095471374 17.357424862779204, 45.17167041279239 17.56889292409717 M46.27992976407678 16.990714730406093 C45.86337237932782 17.208032451211892, 45.44681499457885 17.425350172017687, 45.17167041279239 17.56889292409717 M45.17167041279239 17.56889292409717 C44.76589182908157 17.74851906611194, 44.36011324537075 17.928145208126708, 44.028644095147804 18.07487676824742 M45.17167041279239 17.56889292409717 C44.91480464682935 17.682599779036785, 44.65793888086632 17.796306633976403, 44.028644095147804 18.07487676824742 M44.028644095147804 18.07487676824742 C43.77405245835202 18.168568844007563, 43.51946082155624 18.2622609197677, 42.85554775146062 18.506587066708033 M44.028644095147804 18.07487676824742 C43.78521227105346 18.164461929773253, 43.541780446959116 18.254047091299086, 42.85554775146062 18.506587066708033 M42.85554775146062 18.506587066708033 C42.51980478558097 18.606233816630322, 42.18406181970133 18.70588056655261, 41.65720188623541 18.86224982926107 M42.85554775146062 18.506587066708033 C42.528871142441986 18.60354296950425, 42.20219453342335 18.700498872300468, 41.65720188623541 18.86224982926107 M41.65720188623541 18.86224982926107 C41.18610934503738 18.969773627623393, 40.71501680383935 19.077297425985716, 40.438530759676766 19.140403561325773 M41.65720188623541 18.86224982926107 C41.347169966223994 18.933012591856325, 41.03713804621257 19.00377535445158, 40.438530759676766 19.140403561325773 M40.438530759676766 19.140403561325773 C40.14082008661004 19.18853511416645, 39.84310941354332 19.23666666700713, 39.20454215284788 19.3399052695533 M40.438530759676766 19.140403561325773 C40.02709460234653 19.20692136850787, 39.61565844501629 19.273439175689973, 39.20454215284788 19.3399052695533 M39.20454215284788 19.3399052695533 C38.729161211832434 19.38576469720383, 38.25378027081699 19.431624124854363, 37.9603067896239 19.45993515863156 M39.20454215284788 19.3399052695533 C38.89598766900921 19.369671149518155, 38.58743318517054 19.399437029483014, 37.9603067896239 19.45993515863156 M37.9603067896239 19.45993515863156 C37.58116848525686 19.472093386104667, 37.20203018088982 19.48425161357778, 36.71093750000001 19.5 M37.9603067896239 19.45993515863156 C37.70692596142075 19.468060588616172, 37.4535451332176 19.47618601860078, 36.71093750000001 19.5 M36.71093750000001 19.5 C36.71093750000001 19.5, 36.71093750000001 19.5, 36.7109375 19.5 M36.71093750000001 19.5 C36.71093750000001 19.5, 36.7109375 19.5, 36.7109375 19.5 M36.7109375 19.5 C14.974478306131232 19.5, -6.761980887737536 19.5, -36.71093749999999 19.5 M36.7109375 19.5 C14.806614907807852 19.5, -7.0977076843842966 19.5, -36.71093749999999 19.5 M-36.71093749999999 19.5 C-37.150107122247604 19.48591668500633, -37.589276744495216 19.471833370012664, -37.96030678962389 19.45993515863156 M-36.71093749999999 19.5 C-37.080663619702 19.48814360296939, -37.45038973940401 19.47628720593878, -37.96030678962389 19.45993515863156 M-37.96030678962389 19.45993515863156 C-38.21258913262577 19.435597784416075, -38.464871475627646 19.411260410200594, -39.20454215284787 19.3399052695533 M-37.96030678962389 19.45993515863156 C-38.26462898118905 19.430577562812253, -38.568951172754204 19.401219966992944, -39.20454215284787 19.3399052695533 M-39.20454215284787 19.3399052695533 C-39.462635437409375 19.29817874884871, -39.72072872197088 19.25645222814412, -40.43853075967676 19.140403561325773 M-39.20454215284787 19.3399052695533 C-39.47254258107807 19.296577038691403, -39.74054300930827 19.253248807829504, -40.43853075967676 19.140403561325773 M-40.43853075967676 19.140403561325773 C-40.75795853238512 19.06749625666611, -41.07738630509347 18.99458895200645, -41.657201886235384 18.862249829261074 M-40.43853075967676 19.140403561325773 C-40.88951561914956 19.037469210102348, -41.34050047862237 18.93453485887892, -41.657201886235384 18.862249829261074 M-41.657201886235384 18.862249829261074 C-41.90430123928256 18.788912038327645, -42.15140059232974 18.715574247394215, -42.85554775146059 18.506587066708043 M-41.657201886235384 18.862249829261074 C-42.062078023101094 18.742084717077542, -42.466954159966804 18.62191960489401, -42.85554775146059 18.506587066708043 M-42.85554775146059 18.506587066708043 C-43.16296689552461 18.393453979941068, -43.470386039588625 18.280320893174093, -44.0286440951478 18.074876768247425 M-42.85554775146059 18.506587066708043 C-43.14908966857253 18.398560927739116, -43.44263158568446 18.290534788770188, -44.0286440951478 18.074876768247425 M-44.0286440951478 18.074876768247425 C-44.364433280467956 17.926232856738462, -44.700222465788116 17.777588945229503, -45.17167041279238 17.568892924097174 M-44.0286440951478 18.074876768247425 C-44.40226865157912 17.909484260293958, -44.775893208010444 17.74409175234049, -45.17167041279238 17.568892924097174 M-45.17167041279238 17.568892924097174 C-45.52409462370821 17.385033439000868, -45.876518834624044 17.201173953904558, -46.27992976407678 16.990714730406097 M-45.17167041279238 17.568892924097174 C-45.50739178453555 17.393747299498564, -45.84311315627872 17.218601674899954, -46.27992976407678 16.990714730406097 M-46.27992976407678 16.990714730406097 C-46.65064023111408 16.76598786675157, -47.02135069815138 16.541261003097038, -47.348868073605686 16.3427180453909 M-46.27992976407678 16.990714730406097 C-46.49443538422782 16.860680162895594, -46.70894100437886 16.730645595385088, -47.348868073605686 16.3427180453909 M-47.348868073605686 16.3427180453909 C-47.5589689665679 16.196160757581527, -47.76906985953012 16.049603469772155, -48.37409284457871 15.627565626425156 M-47.348868073605686 16.3427180453909 C-47.68681173190948 16.10698317870336, -48.02475539021327 15.87124831201582, -48.37409284457871 15.627565626425156 M-48.37409284457871 15.627565626425156 C-48.72986394053005 15.343847644870431, -49.0856350364814 15.060129663315706, -49.351391208501866 14.848196188198125 M-48.37409284457871 15.627565626425156 C-48.70070818285126 15.367098585751974, -49.027323521123805 15.106631545078791, -49.351391208501866 14.848196188198125 M-49.351391208501866 14.848196188198125 C-49.70479789274111 14.527241588200507, -50.058204576980366 14.206286988202887, -50.276747236767974 14.007812326905697 M-49.351391208501866 14.848196188198125 C-49.65338675431937 14.573931823850952, -49.955382300136876 14.299667459503777, -50.276747236767974 14.007812326905697 M-50.276747236767974 14.007812326905697 C-50.59251178120462 13.68175951002363, -50.90827632564126 13.355706693141563, -51.146358442968655 13.109867360095677 M-50.276747236767974 14.007812326905697 C-50.57620431895718 13.698598303661662, -50.87566140114639 13.389384280417625, -51.146358442968655 13.109867360095677 M-51.146358442968655 13.109867360095677 C-51.400289172270845 12.811585876389504, -51.65421990157303 12.51330439268333, -51.956651408126575 12.158051136245307 M-51.146358442968655 13.109867360095677 C-51.314105842787136 12.912821719171438, -51.48185324260562 12.715776078247199, -51.956651408126575 12.158051136245307 M-51.956651408126575 12.158051136245307 C-52.13581950178856 11.917982213287367, -52.314987595450546 11.677913290329428, -52.704296464640635 11.156274872382316 M-51.956651408126575 12.158051136245307 C-52.20440619694647 11.826082290152232, -52.452160985766376 11.494113444059156, -52.704296464640635 11.156274872382316 M-52.704296464640635 11.156274872382316 C-52.97661460344786 10.737921083515314, -53.248932742255086 10.31956729464831, -53.38622137860425 10.108655082055249 M-52.704296464640635 11.156274872382316 C-52.862084882343275 10.913869490668251, -53.019873300045916 10.671464108954185, -53.38622137860425 10.108655082055249 M-53.38622137860425 10.108655082055249 C-53.61466579096971 9.703028895395212, -53.84311020333518 9.297402708735175, -53.999623974273504 9.019496659696289 M-53.38622137860425 10.108655082055249 C-53.59143735116496 9.744273342403135, -53.79665332372567 9.379891602751021, -53.999623974273504 9.019496659696289 M-53.999623974273504 9.019496659696289 C-54.20297131997168 8.597241545417829, -54.40631866566986 8.17498643113937, -54.54198364880834 7.893275190886686 M-53.999623974273504 9.019496659696289 C-54.18979419953561 8.624604117948538, -54.37996442479772 8.229711576200787, -54.54198364880834 7.893275190886686 M-54.54198364880834 7.893275190886686 C-54.71228009682091 7.472639671837792, -54.88257654483349 7.052004152788897, -55.011071729970325 6.73461856121551 M-54.54198364880834 7.893275190886686 C-54.66840694273935 7.581007210648975, -54.794830236670364 7.268739230411265, -55.011071729970325 6.73461856121551 M-55.011071729970325 6.73461856121551 C-55.15600354597607 6.298107023155167, -55.300935361981814 5.861595485094824, -55.40496063421488 5.5482879393051325 M-55.011071729970325 6.73461856121551 C-55.10295248534499 6.457888365237345, -55.19483324071965 6.181158169259179, -55.40496063421488 5.5482879393051325 M-55.40496063421488 5.5482879393051325 C-55.51337249912936 5.134866512386748, -55.62178436404384 4.721445085468363, -55.72203178754556 4.339158212148136 M-55.40496063421488 5.5482879393051325 C-55.47020103307651 5.299498023078004, -55.535441431938146 5.050708106850875, -55.72203178754556 4.339158212148136 M-55.72203178754556 4.339158212148136 C-55.798721573734035 3.945372368462356, -55.87541135992251 3.5515865247765763, -55.960982276581774 3.112197953150904 M-55.72203178754556 4.339158212148136 C-55.79963521943768 3.9406809908732243, -55.877238651329804 3.542203769598313, -55.960982276581774 3.112197953150904 M-55.960982276581774 3.112197953150904 C-56.01694425488572 2.678167900368042, -56.07290623318968 2.24413784758518, -56.12083020250937 1.872449005199809 M-55.960982276581774 3.112197953150904 C-56.00340144603256 2.7832032515030933, -56.04582061548334 2.4542085498552826, -56.12083020250937 1.872449005199809 M-56.12083020250937 1.872449005199809 C-56.14779381119633 1.4524690352671898, -56.17475741988329 1.0324890653345704, -56.20091871591342 0.6250057626472781 M-56.12083020250937 1.872449005199809 C-56.14198315594276 1.5429746811180491, -56.16313610937615 1.213500357036289, -56.20091871591342 0.6250057626472781 M-56.20091871591342 0.6250057626472781 C-56.20091871591342 0.19153954436296994, -56.20091871591342 -0.24192667392133826, -56.20091871591342 -0.6250057626472687 M-56.20091871591342 0.6250057626472781 C-56.20091871591342 0.2802002337098662, -56.20091871591342 -0.06460529522754577, -56.20091871591342 -0.6250057626472687 M-56.20091871591342 -0.6250057626472687 C-56.17607759344985 -1.0119262964105145, -56.15123647098628 -1.3988468301737602, -56.12083020250937 -1.8724490051997822 M-56.20091871591342 -0.6250057626472687 C-56.17834788024143 -0.9765647470890896, -56.15577704456945 -1.3281237315309105, -56.12083020250937 -1.8724490051997822 M-56.12083020250937 -1.8724490051997822 C-56.05934882400787 -2.3492864359859507, -55.99786744550638 -2.82612386677212, -55.960982276581774 -3.112197953150895 M-56.12083020250937 -1.8724490051997822 C-56.06029847035145 -2.3419211664740502, -55.999766738193536 -2.811393327748318, -55.960982276581774 -3.112197953150895 M-55.960982276581774 -3.112197953150895 C-55.880354866639095 -3.5262026625974383, -55.79972745669642 -3.9402073720439814, -55.72203178754556 -4.339158212148126 M-55.960982276581774 -3.112197953150895 C-55.86601664558173 -3.5998263973429165, -55.77105101458168 -4.087454841534938, -55.72203178754556 -4.339158212148126 M-55.72203178754556 -4.339158212148126 C-55.642835409749125 -4.6411683246132105, -55.56363903195268 -4.943178437078295, -55.40496063421489 -5.548287939305123 M-55.72203178754556 -4.339158212148126 C-55.65006875348392 -4.6135844500014205, -55.578105719422275 -4.888010687854715, -55.40496063421489 -5.548287939305123 M-55.40496063421489 -5.548287939305123 C-55.30011901970507 -5.8640541779658895, -55.195277405195256 -6.179820416626657, -55.01107172997033 -6.734618561215485 M-55.40496063421489 -5.548287939305123 C-55.32476219941991 -5.7898328470222955, -55.24456376462492 -6.031377754739468, -55.01107172997033 -6.734618561215485 M-55.01107172997033 -6.734618561215485 C-54.89966244925629 -7.00980163853108, -54.78825316854225 -7.284984715846675, -54.54198364880834 -7.893275190886676 M-55.01107172997033 -6.734618561215485 C-54.837728337725906 -7.16278009142571, -54.66438494548148 -7.590941621635936, -54.54198364880834 -7.893275190886676 M-54.54198364880834 -7.893275190886676 C-54.41830863982554 -8.150088993260733, -54.294633630842746 -8.40690279563479, -53.999623974273504 -9.019496659696282 M-54.54198364880834 -7.893275190886676 C-54.41917199600225 -8.148296215686937, -54.29636034319616 -8.403317240487198, -53.999623974273504 -9.019496659696282 M-53.999623974273504 -9.019496659696282 C-53.8190734056778 -9.340082476965545, -53.638522837082085 -9.660668294234808, -53.38622137860425 -10.108655082055243 M-53.999623974273504 -9.019496659696282 C-53.80853317765387 -9.35879771913585, -53.61744238103423 -9.698098778575417, -53.38622137860425 -10.108655082055243 M-53.38622137860425 -10.108655082055243 C-53.223453846369146 -10.358709720770634, -53.06068631413404 -10.608764359486024, -52.70429646464064 -11.156274872382308 M-53.38622137860425 -10.108655082055243 C-53.17086740760379 -10.439496612150213, -52.95551343660333 -10.770338142245185, -52.70429646464064 -11.156274872382308 M-52.70429646464064 -11.156274872382308 C-52.42154773109069 -11.535132416399705, -52.13879899754074 -11.913989960417103, -51.95665140812659 -12.158051136245302 M-52.70429646464064 -11.156274872382308 C-52.510215958563556 -11.416325069427765, -52.31613545248647 -11.67637526647322, -51.95665140812659 -12.158051136245302 M-51.95665140812659 -12.158051136245302 C-51.76600101984968 -12.38199993062977, -51.575350631572775 -12.605948725014237, -51.14635844296866 -13.10986736009567 M-51.95665140812659 -12.158051136245302 C-51.685749712433676 -12.476267682749365, -51.414848016740756 -12.794484229253426, -51.14635844296866 -13.10986736009567 M-51.14635844296866 -13.10986736009567 C-50.92374174919754 -13.33973737358482, -50.70112505542642 -13.56960738707397, -50.276747236767996 -14.007812326905677 M-51.14635844296866 -13.10986736009567 C-50.91690506055521 -13.346796815910608, -50.68745167814175 -13.583726271725546, -50.276747236767996 -14.007812326905677 M-50.276747236767996 -14.007812326905677 C-49.96293185575455 -14.292811152842106, -49.6491164747411 -14.577809978778534, -49.35139120850189 -14.848196188198107 M-50.276747236767996 -14.007812326905677 C-50.070986694786576 -14.19467860700759, -49.86522615280516 -14.381544887109502, -49.35139120850189 -14.848196188198107 M-49.35139120850189 -14.848196188198107 C-49.04754082840202 -15.090508780529557, -48.743690448302154 -15.332821372861007, -48.37409284457872 -15.627565626425149 M-49.35139120850189 -14.848196188198107 C-49.034617755665145 -15.100814587139805, -48.717844302828404 -15.3534329860815, -48.37409284457872 -15.627565626425149 M-48.37409284457872 -15.627565626425149 C-48.09306766134781 -15.823596628862921, -47.8120424781169 -16.019627631300693, -47.348868073605715 -16.342718045390885 M-48.37409284457872 -15.627565626425149 C-48.07584267802593 -15.835612031570756, -47.77759251147314 -16.043658436716363, -47.348868073605715 -16.342718045390885 M-47.348868073605715 -16.342718045390885 C-46.986233165355365 -16.562549457851514, -46.623598257105016 -16.782380870312142, -46.27992976407679 -16.99071473040609 M-47.348868073605715 -16.342718045390885 C-47.04737255872525 -16.52548639829573, -46.74587704384479 -16.708254751200574, -46.27992976407679 -16.99071473040609 M-46.27992976407679 -16.99071473040609 C-46.04239902028554 -17.11463436729628, -45.8048682764943 -17.238554004186472, -45.17167041279239 -17.56889292409717 M-46.27992976407679 -16.99071473040609 C-45.980135307053146 -17.14711730660781, -45.68034085002951 -17.30351988280953, -45.17167041279239 -17.56889292409717 M-45.17167041279239 -17.56889292409717 C-44.92006679987723 -17.68027037997871, -44.668463186962086 -17.791647835860253, -44.028644095147804 -18.07487676824742 M-45.17167041279239 -17.56889292409717 C-44.84521012369379 -17.71340720998072, -44.5187498345952 -17.857921495864268, -44.028644095147804 -18.07487676824742 M-44.028644095147804 -18.07487676824742 C-43.676009727275705 -18.204649475340716, -43.323375359403606 -18.33442218243401, -42.85554775146062 -18.506587066708033 M-44.028644095147804 -18.07487676824742 C-43.74080216695912 -18.180805258602472, -43.45296023877044 -18.286733748957527, -42.85554775146062 -18.506587066708033 M-42.85554775146062 -18.506587066708033 C-42.5547435972692 -18.59586416071882, -42.253939443077776 -18.685141254729608, -41.65720188623541 -18.862249829261067 M-42.85554775146062 -18.506587066708033 C-42.51922922695895 -18.60640463940817, -42.18291070245728 -18.706222212108305, -41.65720188623541 -18.862249829261067 M-41.65720188623541 -18.862249829261067 C-41.30973343532661 -18.941557235737456, -40.962264984417814 -19.020864642213844, -40.438530759676766 -19.140403561325773 M-41.65720188623541 -18.862249829261067 C-41.1815628565177 -18.9708113339594, -40.70592382679998 -19.07937283865773, -40.438530759676766 -19.140403561325773 M-40.438530759676766 -19.140403561325773 C-40.072284203403534 -19.199615464259566, -39.7060376471303 -19.25882736719336, -39.20454215284788 -19.3399052695533 M-40.438530759676766 -19.140403561325773 C-40.09042471410456 -19.196682647171187, -39.74231866853235 -19.252961733016598, -39.20454215284788 -19.3399052695533 M-39.20454215284788 -19.3399052695533 C-38.88011526336337 -19.37120234140145, -38.55568837387887 -19.4024994132496, -37.9603067896239 -19.45993515863156 M-39.20454215284788 -19.3399052695533 C-38.79268853704286 -19.379636292543566, -38.38083492123784 -19.419367315533837, -37.9603067896239 -19.45993515863156 M-37.9603067896239 -19.45993515863156 C-37.46879716126489 -19.47569691574758, -36.97728753290587 -19.491458672863597, -36.71093750000001 -19.5 M-37.9603067896239 -19.45993515863156 C-37.52348164322881 -19.47394329084788, -37.086656496833726 -19.487951423064207, -36.71093750000001 -19.5 M-36.71093750000001 -19.5 C-36.71093750000001 -19.5, -36.7109375 -19.5, -36.7109375 -19.5 M-36.71093750000001 -19.5 C-36.71093750000001 -19.5, -36.7109375 -19.5, -36.7109375 -19.5" stroke="#9370DB" stroke-width="1.3" fill="none" stroke-dasharray="0 0" style=""/></g><g class="label" style="" transform="translate(-43.8359375, -12)"><rect/><foreignObject width="87.671875" height="24"><div xmlns="http://www.w3.org/1999/xhtml" style="display: table-cell; white-space: nowrap; line-height: 1.5; max-width: 200px; text-align: center;"><span class="nodeLabel"><p>👤 End User</p></span></div></foreignObject></g></g><g class="node default" id="my-svg-flowchart-LLM-1" data-look="classic" transform="translate(1404.8259201049805, 673.2678375244141)"><rect class="basic label-container" style="" x="-130" y="-51" width="260" height="102"/><g class="label" style="" transform="translate(-100, -36)"><rect/><foreignObject width="200" height="72"><div xmlns="http://www.w3.org/1999/xhtml" style="display: table; white-space: break-spaces; line-height: 1.5; max-width: 200px; text-align: center; width: 200px;"><span class="nodeLabel"><p>☁ LLM Provider<br />OpenAI / OpenRouter / Ollama</p></span></div></foreignObject></g></g><g class="node default" id="my-svg-flowchart-FNS-2" data-look="classic" transform="translate(1685.0837326049805, 673.2678375244141)"><rect class="basic label-container" style="" x="-100.2578125" y="-39" width="200.515625" height="78"/><g class="label" style="" transform="translate(-70.2578125, -24)"><rect/><foreignObject width="140.515625" height="48"><div xmlns="http://www.w3.org/1999/xhtml" style="display: table-cell; white-space: nowrap; line-height: 1.5; max-width: 200px; text-align: center;"><span class="nodeLabel"><p>☁ FNS Proxy<br />proverkacheka.com</p></span></div></foreignObject></g></g><g class="node default" id="my-svg-flowchart-Uvicorn-3" data-look="classic" transform="translate(590.6071701049805, 397.07833099365234)"><rect class="basic label-container" style="" x="-92.359375" y="-39" width="184.71875" height="78"/><g class="label" style="" transform="translate(-62.359375, -24)"><rect/><foreignObject width="124.71875" height="48"><div xmlns="http://www.w3.org/1999/xhtml" style="display: table-cell; white-space: nowrap; line-height: 1.5; max-width: 200px; text-align: center;"><span class="nodeLabel"><p>Uvicorn / FastAPI<br />(port 8000)</p></span></div></foreignObject></g></g><g class="node default" id="my-svg-flowchart-Static-4" data-look="classic" transform="translate(836.9743576049805, 397.07833099365234)"><rect class="basic label-container" style="" x="-104.0078125" y="-39" width="208.015625" height="78"/><g class="label" style="" transform="translate(-74.0078125, -24)"><rect/><foreignObject width="148.015625" height="48"><div xmlns="http://www.w3.org/1999/xhtml" style="display: table-cell; white-space: nowrap; line-height: 1.5; max-width: 200px; text-align: center;"><span class="nodeLabel"><p>Next.js static export<br />(served at /)</p></span></div></foreignObject></g></g><g class="node default" id="my-svg-flowchart-MLFiles-5" data-look="classic" transform="translate(1067.9040451049805, 397.07833099365234)"><path d="M0,13.793006836265832 a76.921875,13.793006836265832 0,0,0 153.84375,0 a76.921875,13.793006836265832 0,0,0 -153.84375,0 l0,76.79300683626583 a76.921875,13.793006836265832 0,0,0 153.84375,0 l0,-76.79300683626583" class="basic label-container outer-path" style="" transform="translate(-76.921875, -52.18951025439875)"/><g class="label" style="" transform="translate(-69.421875, -14)"><rect/><foreignObject width="138.84375" height="48"><div xmlns="http://www.w3.org/1999/xhtml" style="display: table-cell; white-space: nowrap; line-height: 1.5; max-width: 200px; text-align: center;"><span class="nodeLabel"><p>ML model files<br />xgb_model.pkl etc.</p></span></div></foreignObject></g></g><g class="node default" id="my-svg-flowchart-PG-6" data-look="classic" transform="translate(388.43249130249023, 673.2678375244141)"><path d="M0,12.898590185756643 a66.6171875,12.898590185756643 0,0,0 133.234375,0 a66.6171875,12.898590185756643 0,0,0 -133.234375,0 l0,75.89859018575665 a66.6171875,12.898590185756643 0,0,0 133.234375,0 l0,-75.89859018575665" class="basic label-container outer-path" style="" transform="translate(-66.6171875, -50.84788527863496)"/><g class="label" style="" transform="translate(-59.1171875, -14)"><rect/><foreignObject width="118.234375" height="48"><div xmlns="http://www.w3.org/1999/xhtml" style="display: table-cell; white-space: nowrap; line-height: 1.5; max-width: 200px; text-align: center;"><span class="nodeLabel"><p>PostgreSQL 16<br />fitfood database</p></span></div></foreignObject></g></g><g class="node default" id="my-svg-flowchart-PGVol-7" data-look="classic" transform="translate(388.43249130249023, 850.8512916564941)"><path d="M0,13.388969521044993 a72.0703125,13.388969521044993 0,0,0 144.140625,0 a72.0703125,13.388969521044993 0,0,0 -144.140625,0 l0,76.388969521045 a72.0703125,13.388969521044993 0,0,0 144.140625,0 l0,-76.388969521045" class="basic label-container outer-path" style="" transform="translate(-72.0703125, -51.58345428156749)"/><g class="label" style="" transform="translate(-64.5703125, -14)"><rect/><foreignObject width="129.140625" height="48"><div xmlns="http://www.w3.org/1999/xhtml" style="display: table-cell; white-space: nowrap; line-height: 1.5; max-width: 200px; text-align: center;"><span class="nodeLabel"><p>pgdata volume<br />persistent storage</p></span></div></foreignObject></g></g></g></g></g><defs><filter id="my-svg-drop-shadow" height="130%" width="130%"><feDropShadow dx="4" dy="4" stdDeviation="0" flood-opacity="0.06" flood-color="#000000"/></filter></defs><defs><filter id="my-svg-drop-shadow-small" height="150%" width="150%"><feDropShadow dx="2" dy="2" stdDeviation="0" flood-opacity="0.06" flood-color="#000000"/></filter></defs></svg>